<svg width="40" height="41" viewBox="0 0 40 41" fill="none" xmlns="http://www.w3.org/2000/svg">
<path d="M4.68281 9.15997C4.60875 7.03028 6.26781 5.06653 8.51062 5.06653H31.4919C33.7347 5.06653 35.3937 7.03028 35.3197 9.15997C35.2484 11.2056 35.3409 13.8556 36.0078 16.0162C36.6769 18.1837 37.805 19.5534 39.6528 19.7297V21.7256C37.805 21.9018 36.6769 23.2715 36.0078 25.439C35.3409 27.5997 35.2484 30.2497 35.3197 32.2953C35.3937 34.425 33.7347 36.3884 31.4919 36.3884H8.51062C6.26781 36.3884 4.60875 34.4247 4.68281 32.2953C4.75406 30.2497 4.66156 27.5997 3.99437 25.439C3.32562 23.2718 2.19437 21.9018 0.346558 21.7256V19.7297C2.19437 19.5537 3.32562 18.1837 3.99437 16.0162C4.66156 13.8556 4.75375 11.2056 4.68281 9.15997Z" fill="url(#paint0_linear_25_156)"/>
<g filter="url(#filter0_d_25_156)">
<path d="M20.9718 29.1676C24.6028 29.1676 26.7907 27.3898 26.7907 24.4575C26.7907 22.2409 25.2296 20.6362 22.9115 20.3822V20.2898C24.6146 20.0128 25.951 18.4312 25.951 16.6649C25.951 14.1482 23.9641 12.5088 20.9364 12.5088H14.1239V29.1676H20.9718ZM16.7732 14.6215H20.2977C22.2137 14.6215 23.3018 15.4757 23.3018 17.0227C23.3018 18.6736 22.0363 19.5972 19.7418 19.5972H16.7732V14.6215ZM16.7732 27.0549V21.5713H20.274C22.7813 21.5713 24.0823 22.4948 24.0823 24.2958C24.0823 26.0967 22.8169 27.0549 20.4278 27.0549H16.7732Z" fill="url(#paint1_linear_25_156)"/>
</g>
<defs>
<filter id="filter0_d_25_156" x="10.1933" y="9.56087" width="20.528" height="24.5199" filterUnits="userSpaceOnUse" color-interpolation-filters="sRGB">
<feFlood flood-opacity="0" result="BackgroundImageFix"/>
<feColorMatrix in="SourceAlpha" type="matrix" values="0 0 0 0 0 0 0 0 0 0 0 0 0 0 0 0 0 0 127 0" result="hardAlpha"/>
<feOffset dy="0.98264"/>
<feGaussianBlur stdDeviation="1.96528"/>
<feColorMatrix type="matrix" values="0 0 0 0 0 0 0 0 0 0 0 0 0 0 0 0 0 0 0.15 0"/>
<feBlend mode="normal" in2="BackgroundImageFix" result="effect1_dropShadow_25_156"/>
<feBlend mode="normal" in="SourceGraphic" in2="effect1_dropShadow_25_156" result="shape"/>
</filter>
<linearGradient id="paint0_linear_25_156" x1="6.18736" y1="5.89548" x2="40.5338" y2="33.1601" gradientUnits="userSpaceOnUse">
<stop stop-color="#9013FE"/>
<stop offset="1" stop-color="#6610F2"/>
</linearGradient>
<linearGradient id="paint1_linear_25_156" x1="15.3224" y1="13.605" x2="22.9993" y2="26.5889" gradientUnits="userSpaceOnUse">
<stop stop-color="white"/>
<stop offset="1" stop-color="#F1E5FC"/>
</linearGradient>
</defs>
</svg>
