<svg width="40" height="41" viewBox="0 0 40 41" fill="none" xmlns="http://www.w3.org/2000/svg">
<g clip-path="url(#clip0_25_78)">
<path d="M5.87938 36.1634L2.7375 0.922485H37.2625L34.1175 36.1581L19.9791 40.0778L5.87938 36.1634Z" fill="#1572B6"/>
<path d="M20.0003 37.0818L31.425 33.9143L34.1128 3.80371H20.0003V37.0818Z" fill="#33A9DC"/>
<path d="M20.0003 16.5716H25.7197L26.1147 12.1457H20.0003V7.82349H30.8384L30.7347 8.98317L29.6722 20.8938H20.0003V16.5716Z" fill="white"/>
<path d="M20.0259 27.7965L20.0069 27.8022L15.1934 26.5025L14.8856 23.0553H10.5475L11.1528 29.8419L20.0062 32.299L20.0259 32.2934V27.7965Z" fill="#EBEBEB"/>
<path d="M25.3522 20.7109L24.8316 26.4991L20.0109 27.8003V32.2972L28.8716 29.8416L28.9366 29.1112L29.6884 20.7109H25.3522Z" fill="white"/>
<path d="M20.015 7.82349V12.1457H9.575L9.48844 11.1744L9.29156 8.98317L9.18813 7.82349H20.015ZM20.0003 16.5722V20.8944H15.2475L15.1609 19.9232L14.9637 17.7319L14.8606 16.5722H20.0003Z" fill="#EBEBEB"/>
</g>
<defs>
<clipPath id="clip0_25_78">
<rect width="40" height="40" fill="white" transform="translate(0 0.5)"/>
</clipPath>
</defs>
</svg>
