<svg width="40" height="41" viewBox="0 0 40 41" fill="none" xmlns="http://www.w3.org/2000/svg">
<g clip-path="url(#clip0_25_211)">
<path d="M14.2188 40.8125C17.9375 40.8125 20.9375 37.8125 20.9375 34.0938V27.375H14.2188C10.5 27.375 7.5 30.375 7.5 34.0938C7.5 37.8125 10.5 40.8125 14.2188 40.8125Z" fill="#0ACF83"/>
<path d="M7.5 20.6562C7.5 16.9375 10.5 13.9375 14.2188 13.9375H20.9375V27.375H14.2188C10.5 27.375 7.5 24.375 7.5 20.6562Z" fill="#A259FF"/>
<path d="M7.5 7.21875C7.5 3.5 10.5 0.5 14.2188 0.5H20.9375V13.9375H14.2188C10.5 13.9375 7.5 10.9375 7.5 7.21875Z" fill="#F24E1E"/>
<path d="M20.9375 0.5H27.6562C31.375 0.5 34.375 3.5 34.375 7.21875C34.375 10.9375 31.375 13.9375 27.6562 13.9375H20.9375V0.5Z" fill="#FF7262"/>
<path d="M34.375 20.6562C34.375 24.375 31.375 27.375 27.6562 27.375C23.9375 27.375 20.9375 24.375 20.9375 20.6562C20.9375 16.9375 23.9375 13.9375 27.6562 13.9375C31.375 13.9375 34.375 16.9375 34.375 20.6562Z" fill="#1ABCFE"/>
</g>
<defs>
<clipPath id="clip0_25_211">
<rect width="40" height="40" fill="white" transform="translate(0 0.5)"/>
</clipPath>
</defs>
</svg>
