<svg width="31" height="40" viewBox="0 0 31 40" fill="none" xmlns="http://www.w3.org/2000/svg">
<path fill-rule="evenodd" clip-rule="evenodd" d="M5.92249 0C3.16467 0 0.922485 2.24219 0.922485 5V35C0.922485 37.7578 3.16467 40 5.92249 40H25.9225C28.6803 40 30.9225 37.7578 30.9225 35V12.5H20.9225C19.5397 12.5 18.4225 11.3828 18.4225 10V0H5.92249ZM20.9225 10H30.9225L20.9225 0V10ZM8.10091 21.592C7.73291 22.24 7.54891 22.976 7.54891 23.8C7.54891 24.624 7.73291 25.36 8.10091 26.008C8.47691 26.656 8.98491 27.164 9.62491 27.532C10.2729 27.892 10.9969 28.072 11.7969 28.072C12.7409 28.072 13.5609 27.836 14.2569 27.364C14.9609 26.884 15.4529 26.216 15.7329 25.36H13.8009C13.6089 25.76 13.3369 26.064 12.9849 26.272C12.6409 26.472 12.2409 26.572 11.7849 26.572C11.2969 26.572 10.8609 26.46 10.4769 26.236C10.1009 26.004 9.80491 25.68 9.58891 25.264C9.38091 24.84 9.27691 24.352 9.27691 23.8C9.27691 23.24 9.38091 22.752 9.58891 22.336C9.80491 21.92 10.1009 21.6 10.4769 21.376C10.8609 21.144 11.2969 21.028 11.7849 21.028C12.2409 21.028 12.6409 21.128 12.9849 21.328C13.3369 21.528 13.6089 21.828 13.8009 22.228H15.7329C15.4529 21.38 14.9609 20.716 14.2569 20.236C13.5529 19.756 12.7329 19.516 11.7969 19.516C10.9969 19.516 10.2729 19.7 9.62491 20.068C8.98491 20.428 8.47691 20.936 8.10091 21.592ZM21.6198 28L24.6918 19.624H22.9038L20.6118 26.284L18.3078 19.624H16.5078L19.5798 28H21.6198Z" fill="#C2C6DA"/>
</svg>
