<svg width="40" height="41" viewBox="0 0 40 41" fill="none" xmlns="http://www.w3.org/2000/svg">
<g clip-path="url(#clip0_25_217)">
<path d="M1.33906 0.5C1.33906 0.852812 1.19625 1.19812 0.947187 1.44719C0.698125 1.69625 0.352812 1.83906 0 1.83906V3.60531C0.355015 3.60573 0.69537 3.74694 0.946403 3.99797C1.19744 4.249 1.33865 4.58936 1.33906 4.94438C1.33873 5.29944 1.19756 5.63988 0.946514 5.89098C0.695471 6.14208 0.355069 6.28334 0 6.28375L0 8.04875C0.738437 8.04875 1.33906 8.65063 1.33906 9.38781C1.33906 10.125 0.738437 10.7281 0 10.7281V12.4931C0.355231 12.4935 0.695776 12.6349 0.946845 12.8862C1.19791 13.1375 1.33898 13.4782 1.33906 13.8334C1.33873 14.1885 1.19756 14.5289 0.946514 14.78C0.695471 15.0311 0.355069 15.1724 0 15.1728L0 16.9391C0.355015 16.9395 0.69537 17.0807 0.946403 17.3317C1.19744 17.5828 1.33865 17.9231 1.33906 18.2781C1.33873 18.6332 1.19756 18.9736 0.946514 19.2247C0.695471 19.4758 0.355069 19.6171 0 19.6175L0 21.3838C0.3549 21.3838 0.695258 21.5248 0.946327 21.7756C1.1974 22.0264 1.33865 22.3667 1.33906 22.7216C1.33898 23.0768 1.19791 23.4175 0.946845 23.6688C0.695776 23.9201 0.355231 24.0615 0 24.0619L0 25.8269C0.354906 25.8273 0.695168 25.9684 0.946183 26.2193C1.1972 26.4702 1.33848 26.8104 1.33906 27.1653C1.3389 27.5205 1.19779 27.8611 0.946734 28.1123C0.695674 28.3636 0.355177 28.5049 0 28.5053L0 30.2716C0.355015 30.272 0.69537 30.4132 0.946403 30.6642C1.19744 30.9153 1.33865 31.2556 1.33906 31.6106C1.33873 31.9657 1.19756 32.3061 0.946514 32.5572C0.695471 32.8083 0.355069 32.9496 0 32.95L0 34.7162C0.355015 34.7167 0.69537 34.8579 0.946403 35.1089C1.19744 35.3599 1.33865 35.7003 1.33906 36.0553C1.33873 36.4104 1.19756 36.7508 0.946514 37.0019C0.695471 37.253 0.355069 37.3943 0 37.3947L0 39.1609C0.352812 39.1609 0.698125 39.3037 0.947187 39.5528C1.19625 39.8019 1.33906 40.1472 1.33906 40.5H3.10531C3.10573 40.145 3.24694 39.8046 3.49797 39.5536C3.749 39.3026 4.08936 39.1614 4.44438 39.1609C4.79944 39.1613 5.13988 39.3024 5.39098 39.5535C5.64208 39.8045 5.78334 40.1449 5.78375 40.5H7.54875C7.54941 40.1448 7.69087 39.8044 7.94212 39.5534C8.19337 39.3024 8.53391 39.1613 8.88906 39.1609C9.24408 39.1614 9.58443 39.3026 9.83547 39.5536C10.0865 39.8046 10.2277 40.145 10.2281 40.5H11.9931C11.9935 40.1451 12.1347 39.8048 12.3856 39.5538C12.6365 39.3028 12.9767 39.1615 13.3316 39.1609C13.6867 39.1611 14.0273 39.3022 14.2786 39.5533C14.5298 39.8043 14.6711 40.1448 14.6716 40.5H16.4378C16.4382 40.145 16.5794 39.8046 16.8305 39.5536C17.0815 39.3026 17.4219 39.1614 17.7769 39.1609C18.1319 39.1613 18.4724 39.3024 18.7235 39.5535C18.9746 39.8045 19.1158 40.1449 19.1163 40.5H20.8825C20.8829 40.145 21.0241 39.8046 21.2752 39.5536C21.5262 39.3026 21.8665 39.1614 22.2216 39.1609C22.5766 39.1613 22.9171 39.3024 23.1682 39.5535C23.4193 39.8045 23.5605 40.1449 23.5609 40.5H25.3272C25.3276 40.145 25.4688 39.8046 25.7198 39.5536C25.9709 39.3026 26.3112 39.1614 26.6663 39.1609C27.0213 39.1614 27.3616 39.3026 27.6127 39.5536C27.8637 39.8046 28.0049 40.145 28.0053 40.5H29.7703C29.771 40.1448 29.9124 39.8044 30.1637 39.5534C30.4149 39.3024 30.7555 39.1613 31.1106 39.1609C31.4657 39.1613 31.8061 39.3024 32.0572 39.5535C32.3083 39.8045 32.4496 40.1449 32.45 40.5H34.2144C34.2148 40.145 34.356 39.8046 34.607 39.5536C34.8581 39.3026 35.1984 39.1614 35.5534 39.1609C35.9085 39.1614 36.2488 39.3026 36.4998 39.5536C36.7509 39.8046 36.8921 40.145 36.8925 40.5H38.66C38.66 40.1472 38.8028 39.8019 39.0519 39.5528C39.3009 39.3037 39.6463 39.1609 39.9991 39.1609V37.3959C39.6439 37.3953 39.3035 37.2538 39.0525 37.0026C38.8015 36.7513 38.6603 36.4108 38.66 36.0556C38.6604 35.7006 38.8016 35.3603 39.0527 35.1092C39.3037 34.8582 39.644 34.717 39.9991 34.7166V32.9522C39.644 32.9518 39.3037 32.8106 39.0527 32.5595C38.8016 32.3085 38.6604 31.9681 38.66 31.6131C38.6601 31.2577 38.8013 30.9169 39.0525 30.6656C39.3038 30.4143 39.6446 30.273 40 30.2728V28.5066C39.645 28.5061 39.3046 28.3649 39.0536 28.1139C38.8026 27.8629 38.6614 27.5225 38.6609 27.1675C38.6614 26.8125 38.8026 26.4721 39.0536 26.2211C39.3046 25.9701 39.645 25.8289 40 25.8284V24.0622C39.645 24.0618 39.3046 23.9206 39.0536 23.6695C38.8026 23.4185 38.6614 23.0781 38.6609 22.7231C38.6613 22.3681 38.8024 22.0276 39.0535 21.7765C39.3045 21.5254 39.6449 21.3842 40 21.3838V19.6187C39.645 19.6183 39.3046 19.4771 39.0536 19.2261C38.8026 18.9751 38.6614 18.6347 38.6609 18.2797C38.6613 17.9246 38.8024 17.5842 39.0535 17.3331C39.3045 17.082 39.6449 16.9407 40 16.9403V15.1741C39.645 15.1736 39.3046 15.0324 39.0536 14.7814C38.8026 14.5304 38.6614 14.19 38.6609 13.835C38.661 13.4798 38.8021 13.1391 39.0532 12.8878C39.3042 12.6365 39.6448 12.4951 40 12.4947V10.7281C39.645 10.7277 39.3046 10.5865 39.0536 10.3355C38.8026 10.0844 38.6614 9.74408 38.6609 9.38906C38.6614 9.03405 38.8026 8.69369 39.0536 8.44266C39.3046 8.19163 39.645 8.05041 40 8.05V6.285C39.6448 6.28434 39.3044 6.14288 39.0534 5.89163C38.8024 5.64038 38.6613 5.29984 38.6609 4.94469C38.6616 4.58984 38.8029 4.24972 39.0539 3.99889C39.3049 3.74806 39.6451 3.60698 40 3.60656V1.83906C39.6472 1.83906 39.3019 1.69625 39.0528 1.44719C38.8037 1.19812 38.6609 0.852812 38.6609 0.5H36.8947C36.8943 0.855015 36.7531 1.19537 36.502 1.4464C36.251 1.69744 35.9106 1.83865 35.5556 1.83906C35.2006 1.83873 34.8601 1.69756 34.609 1.44651C34.3579 1.19547 34.2167 0.855069 34.2162 0.5L32.45 0.5C32.4496 0.855015 32.3084 1.19537 32.0573 1.4464C31.8063 1.69744 31.466 1.83865 31.1109 1.83906C30.7559 1.83865 30.4156 1.69744 30.1645 1.4464C29.9135 1.19537 29.7723 0.855015 29.7719 0.5L28.0069 0.5C28.0065 0.854906 27.8653 1.19517 27.6144 1.44618C27.3635 1.6972 27.0233 1.83848 26.6684 1.83906C26.3133 1.8384 25.9729 1.69718 25.7215 1.44626C25.4702 1.19535 25.3284 0.855139 25.3272 0.5L23.5622 0.5C23.5618 0.855015 23.4206 1.19537 23.1695 1.4464C22.9185 1.69744 22.5781 1.83865 22.2231 1.83906C21.8681 1.83873 21.5276 1.69756 21.2765 1.44651C21.0254 1.19547 20.8842 0.855069 20.8838 0.5L19.1175 0.5C19.1171 0.855015 18.9759 1.19537 18.7248 1.4464C18.4738 1.69744 18.1335 1.83865 17.7784 1.83906C17.4234 1.83873 17.0829 1.69756 16.8318 1.44651C16.5807 1.19547 16.4395 0.855069 16.4391 0.5L14.6728 0.5C14.6724 0.855015 14.5312 1.19537 14.2802 1.4464C14.0291 1.69744 13.6888 1.83865 13.3337 1.83906C12.9787 1.83865 12.6384 1.69744 12.3873 1.4464C12.1363 1.19537 11.9951 0.855015 11.9947 0.5L10.2281 0.5C10.2277 0.855015 10.0865 1.19537 9.83547 1.4464C9.58443 1.69744 9.24408 1.83865 8.88906 1.83906C8.53405 1.83865 8.19369 1.69744 7.94266 1.4464C7.69163 1.19537 7.55041 0.855015 7.55 0.5L5.785 0.5C5.785 1.23844 5.18313 1.83906 4.44594 1.83906C3.70875 1.83906 3.10562 1.23844 3.10562 0.5H1.33906ZM10.9522 6.38625H28.4375L27.3219 11.6316H15.1562L14.115 16.5047H34.0747L33.2191 20.0012L22.5466 30.3809C23.5134 30.5297 24.4434 30.7531 25.4469 30.7531C27.8894 30.7531 30.6972 30.0084 32.5953 29.2272L31.62 33.8037C28.8294 35.1431 27.1181 35.2556 25.4469 35.2556C23.6256 35.2556 21.8763 34.66 20.0903 34.66C19.0856 34.66 17.6353 34.7347 16.7419 35.3291L14.8072 31.9075L25.8178 21.0066H13.1469L10.7288 32.3531H5.44688L10.9522 6.38625Z" fill="url(#paint0_linear_25_217)"/>
</g>
<defs>
<linearGradient id="paint0_linear_25_217" x1="19.9991" y1="5.35719" x2="19.9991" y2="36.2575" gradientUnits="userSpaceOnUse">
<stop stop-color="#BF0000"/>
<stop offset="1" stop-color="#8F0000"/>
</linearGradient>
<clipPath id="clip0_25_217">
<rect width="40" height="40" fill="white" transform="translate(0 0.5)"/>
</clipPath>
</defs>
</svg>
