<svg width="40" height="41" viewBox="0 0 40 41" fill="none" xmlns="http://www.w3.org/2000/svg">
<g clip-path="url(#clip0_25_198)">
<path d="M38.9803 18.7432L21.7566 1.52003C20.7653 0.528154 19.1566 0.528154 18.1638 1.52003L14.5875 5.0969L19.1244 9.63378C20.1791 9.27784 21.3878 9.51659 22.2281 10.3569C23.0728 11.2025 23.3097 12.4216 22.945 13.4797L27.3175 17.8525C28.3753 17.4878 29.5963 17.7235 30.4406 18.5697C31.6219 19.75 31.6219 21.6635 30.4406 22.8444C30.1599 23.1253 29.8266 23.348 29.4598 23.5C29.0929 23.652 28.6997 23.7303 28.3027 23.7303C27.9056 23.7303 27.5124 23.652 27.1455 23.5C26.7787 23.348 26.4454 23.1253 26.1647 22.8444C25.7429 22.4224 25.4554 21.8851 25.3384 21.3C25.2213 20.715 25.28 20.1084 25.5069 19.5566L21.4294 15.4791L21.4288 26.2107C21.7246 26.3563 21.9947 26.5493 22.2284 26.7819C23.4091 27.9622 23.4091 29.875 22.2284 31.0578C21.0475 32.2382 19.1334 32.2382 17.9538 31.0578C16.7731 29.8753 16.7731 27.9625 17.9538 26.7819C18.2366 26.4986 18.573 26.2744 18.9434 26.1225V15.2916C18.5728 15.1401 18.2362 14.9158 17.9538 14.6319C17.0594 13.7382 16.8441 12.4257 17.3028 11.3269L12.83 6.85409L1.02 18.6635C0.543541 19.1401 0.275879 19.7864 0.275879 20.4603C0.275879 21.1343 0.543541 21.7806 1.02 22.2572L18.2441 39.4803C19.2359 40.4722 20.8441 40.4722 21.8375 39.4803L38.9806 22.3372C39.457 21.8605 39.7246 21.2141 39.7245 20.5401C39.7244 19.8662 39.4568 19.2198 38.9803 18.7432Z" fill="#F34F29"/>
</g>
<defs>
<clipPath id="clip0_25_198">
<rect width="40" height="40" fill="white" transform="translate(0 0.5)"/>
</clipPath>
</defs>
</svg>
