<svg width="37" height="36" viewBox="0 0 37 36" fill="none" xmlns="http://www.w3.org/2000/svg">
<path d="M8.98234 36H1.51716V11.9652H8.98234V36ZM5.24573 8.68661C2.85912 8.68661 0.922516 6.70982 0.922516 4.32321C0.922516 3.17663 1.378 2.077 2.18876 1.26624C2.99952 0.45548 4.09914 0 5.24573 0C6.39232 0 7.49194 0.45548 8.3027 1.26624C9.11346 2.077 9.56894 3.17663 9.56894 4.32321C9.56894 6.70982 7.63234 8.68661 5.24573 8.68661ZM36.9145 36H29.4654V24.3C29.4654 21.5116 29.4091 17.9357 25.5841 17.9357C21.7029 17.9357 21.1082 20.9652 21.1082 24.0991V36H13.6511V11.9652H20.8109V15.2437H20.9154C21.9118 13.3554 24.3466 11.3625 27.9788 11.3625C35.5323 11.3625 36.9225 16.3366 36.9225 22.7973V36H36.9145Z" fill="#C2C6DA"/>
</svg>
