<svg width="40" height="39" viewBox="0 0 40 39" fill="none" xmlns="http://www.w3.org/2000/svg">
<path d="M3.00778 9.55665C-0.438778 14.5101 -0.0097158 20.9554 2.6231 26.2191C2.6856 26.3454 2.75122 26.4695 2.81591 26.5935L2.93903 26.8307L3.01591 26.9673L3.1531 27.2129C3.23497 27.357 3.31872 27.5004 3.40435 27.6438L3.54778 27.8801C3.64278 28.0335 3.73997 28.1851 3.83935 28.3363L3.96372 28.5282C4.10091 28.7329 4.24122 28.9373 4.38622 29.1379L4.39841 29.1535L4.46966 29.2498C4.59497 29.4226 4.72403 29.5932 4.85466 29.762L4.99966 29.9463C5.11622 30.0929 5.23466 30.2385 5.35528 30.3835L5.49122 30.546C5.6534 30.7374 5.81863 30.9262 5.98685 31.1123L5.99716 31.1226L6.01622 31.1438C6.18155 31.3232 6.34949 31.5002 6.51997 31.6748L6.68153 31.8376C6.81372 31.9707 6.9481 32.1016 7.08372 32.232L7.24841 32.3882C7.42966 32.5591 7.61278 32.7266 7.79966 32.8904L7.80841 32.8973L7.90435 32.9791C8.06903 33.1217 8.23653 33.2632 8.40528 33.402L8.61278 33.5673C8.7506 33.6779 8.88997 33.7866 9.03028 33.8935L9.25341 34.0632C9.40841 34.1773 9.56435 34.2895 9.72185 34.3991L9.89247 34.5201L9.93935 34.5535C10.0887 34.6563 10.2415 34.7554 10.3943 34.8545L10.5912 34.9857C10.8256 35.1338 11.0631 35.2804 11.3034 35.422L11.5003 35.5329C11.6768 35.6348 11.8547 35.7348 12.0347 35.8326C12.1322 35.8851 12.2322 35.9348 12.3303 35.9851C12.4575 36.0516 12.5837 36.1191 12.7131 36.1838L12.8015 36.2267L12.9581 36.3023C13.1584 36.3979 13.3603 36.492 13.5643 36.5826L13.6925 36.6401C13.9264 36.7424 14.1622 36.8405 14.3997 36.9342L14.5718 37.002C14.7918 37.0866 15.015 37.1704 15.239 37.2491L15.3228 37.2782C15.5687 37.3641 15.8168 37.4438 16.0668 37.5216L16.2465 37.5754C16.5009 37.652 16.7525 37.7435 17.0147 37.792C33.6831 40.8316 38.525 27.7754 38.525 27.7754C34.4584 33.0732 27.2403 34.4707 20.4012 32.9148C20.1422 32.8563 19.8909 32.7754 19.6381 32.7007L19.4478 32.6429C19.2014 32.5674 18.9564 32.4877 18.7128 32.4038L18.6118 32.3673C18.3946 32.2905 18.1785 32.2104 17.9637 32.127L17.7818 32.0554C17.5468 31.9626 17.3131 31.8657 17.0822 31.7645L16.9425 31.7026C16.7447 31.6132 16.5479 31.5217 16.3522 31.4279L16.1815 31.346C16.0281 31.2713 15.8762 31.192 15.725 31.1138C15.6237 31.0604 15.5206 31.0101 15.4203 30.9545C15.2361 30.8553 15.0537 30.753 14.8731 30.6476L14.6884 30.5445C14.4485 30.4029 14.211 30.2573 13.9759 30.1079L13.7837 29.9798C13.6128 29.8702 13.4437 29.7578 13.2765 29.6426L13.1134 29.5279C12.9524 29.4141 12.7926 29.2985 12.634 29.1813L12.4218 29.0207C12.2762 28.91 12.132 28.7973 11.9893 28.6826L11.7965 28.5279C11.6149 28.379 11.4353 28.2276 11.2578 28.0738L11.1987 28.0241C11.0075 27.8554 10.8187 27.6838 10.6325 27.5095L10.4728 27.356C10.335 27.2248 10.1993 27.0926 10.0659 26.957L9.90653 26.7979C9.73718 26.6246 9.5707 26.4485 9.40716 26.2698L9.38247 26.2435C9.21013 26.0545 9.04125 25.8624 8.87591 25.6673L8.74341 25.5098C8.61988 25.3612 8.49831 25.2109 8.37872 25.0591L8.24528 24.8929C8.10231 24.708 7.96198 24.5211 7.82435 24.3323C4.02747 19.1529 2.6631 12.0098 5.69778 6.14352M13.7068 5.3829C11.214 8.96977 11.3497 13.7716 13.294 17.5651C13.6194 18.2028 13.9878 18.8176 14.3965 19.4054C14.77 19.9407 15.184 20.5776 15.6797 21.0076C15.8609 21.2061 16.0474 21.3997 16.239 21.5882L16.3865 21.7335C16.5727 21.915 16.7631 22.0919 16.9578 22.2641L16.9809 22.2841L16.9865 22.2898C17.2043 22.4794 17.4267 22.6635 17.6537 22.842L17.8053 22.9601C18.0335 23.1359 18.2662 23.3059 18.5031 23.4698L18.5234 23.4851C18.6284 23.5576 18.7353 23.6251 18.8418 23.6951L18.9928 23.7948C19.1628 23.9038 19.335 24.0101 19.51 24.112L19.5834 24.1545C19.7343 24.2413 19.8872 24.327 20.0406 24.4101L20.2034 24.4948C20.3093 24.5501 20.4153 24.6066 20.5231 24.6604L20.5715 24.6823C20.7912 24.7904 21.0128 24.8948 21.239 24.9932L21.3865 25.0538C21.5675 25.1307 21.7503 25.2057 21.9334 25.2757L22.1678 25.3616C22.3343 25.4235 22.5015 25.4798 22.67 25.5363L22.8972 25.6091C23.1368 25.6835 23.3737 25.7776 23.6234 25.8191C36.4931 27.9513 39.4643 18.0423 39.4643 18.0423C36.7862 21.8995 31.5993 23.7401 26.0647 22.3032C25.82 22.2389 25.5769 22.1686 25.3356 22.0926L25.1165 22.0216C24.9455 21.9663 24.7756 21.9078 24.6068 21.846L24.3768 21.7604C24.1927 21.6897 24.0098 21.616 23.8281 21.5391L23.6803 21.4766C23.454 21.3782 23.2302 21.2741 23.009 21.1645C22.8956 21.1091 22.784 21.0507 22.6722 20.9932L22.4778 20.8932C22.3344 20.8155 22.1924 20.7353 22.0518 20.6526L21.95 20.5948C21.7759 20.4933 21.6039 20.3882 21.434 20.2798L21.2784 20.176C21.1663 20.1035 21.0549 20.0299 20.9443 19.9551C20.7084 19.7911 20.4765 19.6215 20.2487 19.4463L20.0922 19.3229C17.6697 17.4104 15.749 14.796 14.8362 11.832C13.8793 8.75821 14.0856 5.30758 15.7434 2.50696M22.7053 2.26477C21.2359 4.42727 21.0915 7.1129 22.1112 9.50102C23.1865 12.0363 25.3897 14.0248 27.9612 14.9682C28.0672 15.0073 28.1734 15.0423 28.2806 15.0788L28.4215 15.1235C28.5731 15.171 28.7234 15.2263 28.88 15.256C35.9862 16.6291 37.9137 11.6095 38.4265 10.8704C36.7384 13.3013 33.9009 13.8848 30.4193 13.0398C30.1443 12.9732 29.8422 12.8738 29.5772 12.7798C29.2367 12.6588 28.9028 12.5202 28.5768 12.3645C27.9583 12.0667 27.3709 11.7082 26.8231 11.2945C23.7078 8.9304 21.7725 4.42133 23.8053 0.749146" fill="#0868AC"/>
</svg>
