<svg width="40" height="41" viewBox="0 0 40 41" fill="none" xmlns="http://www.w3.org/2000/svg">
<g clip-path="url(#clip0_25_89)">
<path d="M0.440002 0.939941H39.56V40.0603H0.440002V0.939941Z" fill="#F0DB4F"/>
<path d="M36.3584 30.73C36.0719 28.9453 34.9081 27.4463 31.4609 26.0485C30.2634 25.4981 28.9284 25.1041 28.5306 24.1966C28.3894 23.6685 28.3706 23.371 28.46 23.0513C28.7165 22.0138 29.955 21.6903 30.9366 21.9878C31.5687 22.1997 32.1672 22.6869 32.5281 23.4641C34.2162 22.371 34.2128 22.3781 35.3915 21.6269C34.96 20.9578 34.7297 20.6491 34.4472 20.3628C33.4319 19.2288 32.0484 18.6447 29.8359 18.6894L28.6834 18.8385C27.5791 19.1175 26.5266 19.6972 25.9094 20.4744C24.0575 22.5756 24.5856 26.2531 26.8391 27.7666C29.0591 29.4328 32.3203 29.8119 32.7369 31.37C33.1422 33.2775 31.335 33.895 29.5387 33.6756C28.215 33.4003 27.4787 32.7275 26.6828 31.5041C25.2178 32.3519 25.2178 32.3519 23.7115 33.2181C24.0687 33.9991 24.444 34.3525 25.0428 35.0291C27.8766 37.9035 34.9678 37.7622 36.2397 33.4116C36.2912 33.2622 36.6337 32.266 36.3584 30.73ZM21.7069 18.9197H18.0478L18.0328 28.3797C18.0328 30.3916 18.1369 32.236 17.8097 32.8013C17.2744 33.9131 15.8872 33.7753 15.255 33.5597C14.6116 33.2435 14.2844 32.7938 13.9053 32.1581C13.8012 31.9756 13.7231 31.8344 13.6969 31.8235L10.7219 33.6453C11.2166 34.6606 11.9453 35.5419 12.8787 36.1144C14.2731 36.9513 16.1472 37.2078 18.1072 36.7578C19.3828 36.3863 20.4834 35.6166 21.0597 34.445C21.8928 32.9091 21.714 31.05 21.7065 28.9938C21.7253 25.6391 21.7069 22.285 21.7069 18.9197Z" fill="#323330"/>
</g>
<defs>
<clipPath id="clip0_25_89">
<rect width="40" height="40" fill="white" transform="translate(0 0.5)"/>
</clipPath>
</defs>
</svg>
