<svg width="40" height="41" viewBox="0 0 40 41" fill="none" xmlns="http://www.w3.org/2000/svg">
<g clip-path="url(#clip0_25_153)">
<path d="M8.57964 1.29305C8.51855 1.31655 6.79275 2.29987 4.74623 3.47585C2.2662 4.90208 0.992705 5.65278 0.924566 5.72327C0.870524 5.78436 0.809434 5.89009 0.790637 5.95706C0.738945 6.12976 0.735421 31.4317 0.787113 31.6138C0.80591 31.6843 0.867 31.7876 0.922216 31.8452C1.05614 31.9862 15.8611 40.4989 16.0409 40.54C16.1243 40.56 16.2183 40.5564 16.3111 40.5306C16.5131 40.4801 31.2794 31.9862 31.4109 31.8476C31.465 31.7876 31.5261 31.6843 31.546 31.6138C31.5719 31.5304 31.5813 30.2075 31.5813 27.422V23.3513L35.1809 21.2837C38.5749 19.3323 38.7829 19.2101 38.8698 19.0762L38.9591 18.9317V14.5473C38.9591 9.77402 38.9685 10.0431 38.7794 9.87036C38.7288 9.82571 36.9995 8.81655 34.933 7.62647L31.1795 5.46716H30.7624L27.09 7.57595C25.0681 8.73901 23.3494 9.7329 23.266 9.78694C23.1826 9.84216 23.0827 9.94437 23.0416 10.0184L22.9676 10.1464L22.9511 14.2771L22.9358 18.4089L19.9037 20.1558C18.2354 21.1145 16.8468 21.9087 16.8174 21.9157C16.7634 21.931 16.7599 21.5374 16.7599 13.9446V5.95353L16.68 5.81608C16.5801 5.64926 17.0289 5.91594 12.5223 3.32548C8.74294 1.15208 8.8334 1.19789 8.57964 1.29305ZM12.0536 4.45682C13.6349 5.36378 14.9283 6.11448 14.9283 6.12388C14.9283 6.13328 13.542 6.9345 11.848 7.90842L8.76526 9.67769L5.68843 7.90842C3.99787 6.9345 2.61277 6.13328 2.61277 6.12388C2.61277 6.11448 3.99552 5.31326 5.68608 4.34169L8.75586 2.57595L8.96733 2.69108C9.08598 2.75569 10.4758 3.54987 12.0536 4.45682ZM34.0543 8.52755C35.719 9.48619 37.0959 10.278 37.1088 10.2909C37.144 10.3227 31.0385 13.8318 30.9551 13.8283C30.8717 13.8259 24.8414 10.3485 24.8437 10.3062C24.8473 10.258 30.914 6.76768 30.9751 6.77708C31.0033 6.78412 32.3896 7.57242 34.0543 8.52755ZM5.21145 9.03389L8.14613 10.7233L8.16258 19.0879L8.17785 27.4538L8.24952 27.5665C8.28711 27.6265 8.3576 27.7075 8.40929 27.7451C8.45746 27.7804 10.0904 28.7108 12.0371 29.8093L15.5733 31.8064V35.345C15.5733 37.2869 15.5604 38.88 15.5439 38.88C15.531 38.88 12.4741 37.1307 8.75234 34.989L1.9866 31.098L1.9772 19.1361L1.97132 7.17769L2.1217 7.2611C2.20864 7.30692 3.59726 8.10461 5.21145 9.03389ZM15.5733 14.922V22.63L15.4546 22.7075C15.2937 22.8097 9.41728 26.1873 9.39731 26.1873C9.38791 26.1873 9.38086 22.7075 9.38086 18.4535L9.38439 10.7233L12.4542 8.95753C14.1424 7.98596 15.5345 7.19766 15.551 7.20353C15.5627 7.21058 15.5733 10.6845 15.5733 14.922ZM27.285 13.1493L30.3618 14.9185V18.4253C30.3618 21.7524 30.3583 21.931 30.3078 21.9122C30.2749 21.8993 28.8827 21.1016 27.2122 20.1394L24.1706 18.3924V14.8868C24.1706 12.9566 24.18 11.38 24.1894 11.38C24.2023 11.38 25.5944 12.1753 27.285 13.1493ZM37.7725 14.8645C37.7725 16.7841 37.7596 18.3678 37.7467 18.383C37.7244 18.4183 31.6389 21.9251 31.6001 21.9251C31.5907 21.9251 31.5813 20.3485 31.5813 18.4183V14.9127L34.6511 13.1457C36.3416 12.1753 37.7338 11.38 37.7467 11.38C37.7631 11.38 37.7725 12.9472 37.7725 14.8645ZM26.6858 21.2425C29.274 22.7322 29.7204 22.9989 29.6757 23.0341C29.6464 23.0529 28.6654 23.6168 27.4976 24.2841C26.3299 24.9502 23.3047 26.6749 20.773 28.1175L16.1725 30.7421L16.0256 30.6622C15.1468 30.1817 10.0482 27.2811 10.0482 27.2587C10.0458 27.2106 23.5385 19.4568 23.5926 19.4768C23.6184 19.4862 25.0106 20.2804 26.6858 21.2425ZM30.356 27.5853L30.3454 31.098L23.5832 34.989C19.8625 37.1307 16.8045 38.88 16.7892 38.88C16.7728 38.88 16.7599 37.4502 16.7599 35.345V31.8064L23.5385 27.9413C27.2627 25.8161 30.3231 24.0762 30.3395 24.0727C30.3524 24.0727 30.3583 25.6528 30.356 27.5853Z" fill="#F05340"/>
</g>
<defs>
<clipPath id="clip0_25_153">
<rect width="38.4962" height="40" fill="white" transform="translate(0.751892 0.5)"/>
</clipPath>
</defs>
</svg>
