<svg width="380" height="244" viewBox="0 0 380 244" fill="none" xmlns="http://www.w3.org/2000/svg">
<path fill-rule="evenodd" clip-rule="evenodd" d="M100.45 22.1304H120V32.1304H100.45L100.45 32.1305L18.0743 114.533C16.3387 112.781 13.9161 111.643 11.0236 111.643C13.6608 111.643 16.1929 112.682 18.0699 114.537L11.0236 121.586L11.007 121.603C10.9922 121.617 11.0026 121.643 11.0236 121.643C11.0298 121.643 11.0358 121.645 11.0402 121.65L97 207.637V221.782L4.57423 129.326C0.413621 125.802 -0.561949 119.031 3.93474 114.533L93.378 25.0605C95.2884 23.1495 97.8474 22.1304 100.45 22.1304ZM283.783 220.999L375.426 129.325C379.586 125.802 380.563 119.032 376.065 114.533L288.086 26.5255C285.273 23.7114 281.457 22.1304 277.478 22.1304H260V32.1304H277.478C278.804 32.1304 280.077 32.6574 281.014 33.5954L361.926 114.533C363.665 112.777 366.095 111.637 368.995 111.643C366.35 111.638 363.81 112.679 361.93 114.537L368.977 121.586L368.993 121.603C369.008 121.617 368.997 121.643 368.977 121.643C368.97 121.643 368.964 121.645 368.96 121.649L283.783 206.854V220.999Z" fill="white"/>
<path d="M170.223 0.524242C149.397 3.66955 132.05 18.1571 125.712 37.6485C123.377 44.8922 123.186 46.5602 122.805 66.2422C122.471 83.5891 122.376 85.3524 121.423 88.8789C119.945 94.2164 118.182 98.0289 114.322 104.51C112.463 107.608 110.319 111.706 109.509 113.565C102.694 130.054 104.076 149.736 113.13 165.129C115.752 169.609 120.66 175.613 123.948 178.425L126.617 180.713L123.329 183.286C116.8 188.385 111.272 197.011 108.889 205.637C107.984 209.116 107.841 210.927 107.65 225.271L107.459 241.141L108.984 242.618C110.271 243.905 110.7 244.095 112.177 243.857C115.466 243.285 115.37 243.762 115.704 226.224C116.037 208.591 116.18 207.495 119.469 200.871C122.757 194.199 127.856 189.1 134.766 185.621C138.96 183.477 142.916 182.523 149.254 182.047C152.161 181.809 155.259 181.475 156.164 181.332C157.784 181.046 158.404 181.427 173.082 192.817C186.33 203.111 188.57 204.636 190 204.636C191.43 204.636 193.05 203.588 201.009 197.392C206.155 193.437 210.54 189.815 210.683 189.386C211.35 187.575 210.969 185.955 209.491 184.716C206.87 182.476 207.013 182.428 194.861 191.912C192.383 193.818 190.238 195.391 190 195.391C189.619 195.391 168.03 178.806 166.458 177.281C165.648 176.471 165.648 176.376 167.84 174.136C171.319 170.514 173.32 166.416 174.512 160.411C174.75 159.315 174.988 159.124 175.846 159.363C183.614 161.507 195.433 161.555 203.582 159.458C221.262 154.835 236.036 140.967 241.659 123.668C243.995 116.329 244.328 112.85 244.328 94.1211C244.328 73.2 244.805 74.725 237.99 74.2961C234.416 74.0578 232.843 73.7242 230.794 72.7234C226.314 70.5313 223.359 66.0516 222.359 59.9516C222.12 58.2836 221.787 56.4727 221.644 55.9008C221.405 54.757 219.261 53.375 217.736 53.375C217.212 53.375 214.829 54.7094 212.351 56.3297C196.815 66.5281 179.754 73.2953 161.263 76.4883C158.976 76.8695 156.688 77.3938 156.212 77.6797C154.782 78.4422 154.162 80.825 154.925 82.6836C156.021 85.257 158.023 85.4953 166.362 83.8274C181.898 80.7297 197.625 74.7727 210.302 67.1477C214.352 64.7172 215.258 64.3836 215.258 65.432C215.258 65.7656 216.02 67.5766 216.926 69.5305C220.071 76.0594 226.171 80.7297 233.32 82.0641L236.227 82.6359V96.7899C236.227 111.754 235.845 115.614 233.748 121.762C230.555 131.055 223.931 139.68 215.591 145.304C212.208 147.591 205.822 150.451 201.58 151.642C195.957 153.167 184.234 153.167 178.562 151.642C160.739 146.781 147.967 132.961 144.536 114.899C143.916 111.754 143.773 107.465 143.773 94.2641C143.773 76.8219 143.63 75.3922 141.629 74.6297C139.961 74.0102 138.007 74.3438 136.863 75.5352L135.672 76.6789V93.9781C135.672 112.755 135.958 116.138 138.293 123.43C142.439 136.345 151.732 147.734 163.503 154.216C166.41 155.788 166.648 156.027 166.648 157.504C166.648 158.362 166.22 160.411 165.743 161.984C163.503 169.18 156.831 173.898 148.873 173.945C145.441 173.993 139.723 174.946 136.673 175.995L134.528 176.757L131.907 174.517C122.9 166.94 117.515 158.457 114.655 147.448C113.75 143.922 113.559 141.968 113.512 136.059C113.512 125.002 115.418 118.378 121.47 108.37C125.569 101.603 127.713 96.7422 129.334 90.6422C130.525 86.2102 130.573 85.3047 130.954 67.1953C131.145 56.8539 131.526 47.275 131.812 45.9883C135.481 29.1656 147.3 15.8219 163.17 10.5321C169.746 8.33987 173.654 8.00627 192.097 8.24455C207.823 8.38752 209.634 8.53049 213.256 9.43596C231.08 14.1063 244.233 27.8313 248.188 45.9883C248.474 47.275 248.855 56.8539 249.094 67.1953C249.427 84.018 249.57 86.4484 250.476 89.9274C252.048 96.1703 254.145 101.079 257.767 107.036C261.866 113.803 263.962 118.569 265.392 124.192C266.87 130.149 266.87 141.92 265.392 147.353C263.962 152.595 261.866 157.599 259.387 161.698C257.005 165.653 256.862 166.177 257.91 168.179C258.673 169.656 259.483 170.133 261.294 170.133C263.248 170.133 264.153 169.37 266.488 165.653C275.066 151.88 277.163 133.533 271.969 117.663C270.396 112.85 268.585 109.18 265.011 103.366C261.961 98.4578 260.055 94.1211 258.577 88.8789C257.624 85.3524 257.529 83.5891 257.195 66.2422C256.909 51.707 256.623 46.6555 256.052 44.0821C253.859 34.5508 250.428 27.45 244.376 19.9203C237.18 10.961 226.219 4.19377 214.352 1.3344C210.635 0.42893 208.538 0.333617 191.668 0.190648C181.47 0.142992 171.795 0.285961 170.223 0.524242Z" fill="white"/>
<path d="M210.111 164.7C207.204 166.702 208.109 170.133 212.78 174.803C217.402 179.426 223.884 182.047 230.555 182.047C235.178 182.047 240.373 183.334 245.043 185.621C252.334 189.195 257.1 193.913 260.531 200.871C263.82 207.495 263.962 208.544 264.296 226.224C264.63 243.762 264.534 243.285 267.823 243.857C269.3 244.095 269.729 243.905 271.016 242.618L272.541 241.141L272.35 225.271C272.159 210.974 272.016 209.068 271.111 205.637C269.729 200.538 266.393 193.913 263.105 189.672C255.67 180.236 242.851 173.945 230.841 173.945C227.458 173.945 222.93 172.468 220.166 170.514C219.023 169.704 218.117 168.894 218.117 168.751C218.117 168.56 217.164 167.416 216.068 166.177C213.78 163.699 212.112 163.318 210.111 164.7Z" fill="white"/>
<g clip-path="url(#clip0_1_59)">
<path d="M144.773 90.8901C143.076 91.2672 141.285 92.21 140.813 92.9641C139.682 94.5668 139.776 100.035 140.813 100.694C141.285 101.072 142.228 104.277 142.793 108.048C144.584 118.701 149.298 122 162.685 122C174.94 122 180.974 118.135 184.744 107.765C186.724 102.297 187.101 101.731 189.835 101.449C191.626 101.26 192.946 101.637 193.135 102.391C196.34 113.327 200.959 119.172 207.841 121.057C213.498 122.566 226.319 121.812 230.184 119.832C233.955 117.852 235.557 114.835 237.066 107.105C237.726 103.9 238.668 100.977 239.045 100.694C240.459 99.846 239.988 94.0011 238.48 92.3985C236.5 90.4188 228.487 89.6646 214.629 90.136C204.165 90.5131 201.902 90.8901 196.34 93.247L189.929 95.9809L183.613 93.247C177.58 90.7016 176.26 90.5131 162.59 90.3245C154.577 90.136 146.564 90.4188 144.773 90.8901ZM176.543 95.1324C183.425 97.2064 184.085 100.694 179.371 110.499C176.637 116.249 171.735 118.701 162.59 118.701C154.86 118.701 150.335 116.909 148.355 113.233C145.056 107.199 145.716 97.8663 149.675 95.1324C152.503 93.1527 169.849 93.1527 176.543 95.1324ZM230.938 96.0751C232.918 97.9606 233.295 99.2804 233.295 103.617C233.295 114.741 229.147 118.606 217.268 118.701C207.653 118.701 203.599 116.627 200.111 109.745C196.811 103.334 196.623 98.0549 199.639 96.4522C203.222 94.4725 207.087 93.9069 218.023 93.8126C228.11 93.7183 228.77 93.8126 230.938 96.0751Z" fill="white"/>
</g>
<defs>
<clipPath id="clip0_1_59">
<rect width="94" height="94" fill="white" transform="translate(143 59)"/>
</clipPath>
</defs>
</svg>
