<svg width="455" height="365" viewBox="0 0 455 365" fill="none" xmlns="http://www.w3.org/2000/svg">
<path fill-rule="evenodd" clip-rule="evenodd" d="M119.594 26.6405H143.105V38.6405H119.594L119.594 38.6406L20.5092 137.758C18.4265 135.655 15.5194 134.289 12.0484 134.289C15.2224 134.289 18.2582 135.543 20.5039 137.763L12.0484 146.221L12.0284 146.241C12.0106 146.259 12.0232 146.289 12.0484 146.289C12.0559 146.289 12.0631 146.292 12.0684 146.298L115.445 249.707V266.681L4.30942 155.509C-0.683563 151.281 -1.85438 143.155 3.54176 137.757L111.108 30.1567C113.486 27.7776 116.596 26.6405 119.594 26.6405ZM340.072 265.739L450.276 155.5C455.259 151.27 456.431 143.156 451.034 137.757L344.933 31.6216C341.745 28.4323 337.42 26.6405 332.91 26.6405H311.471V38.6405H332.91C334.237 38.6405 335.509 39.1675 336.446 40.1055L434.068 137.758C436.151 135.655 439.059 134.289 442.528 134.289C439.361 134.289 436.323 135.538 434.072 137.763L442.528 146.221L442.548 146.241C442.555 146.249 442.557 146.259 442.555 146.267C442.554 146.274 442.55 146.279 442.545 146.283C442.54 146.287 442.534 146.289 442.528 146.289C442.52 146.289 442.513 146.292 442.508 146.298L340.072 248.766V265.739Z" fill="white"/>
<path d="M203.741 0.629519C178.733 4.40647 157.902 21.8033 150.291 45.209C147.487 53.9074 147.258 55.9104 146.8 79.5449C146.4 100.375 146.285 102.493 145.141 106.728C143.367 113.137 141.249 117.715 136.614 125.498C134.382 129.218 131.807 134.139 130.834 136.371C122.651 156.171 124.31 179.806 135.183 198.29C138.331 203.669 144.225 210.88 148.174 214.256L151.379 217.003L147.43 220.093C139.59 226.217 132.952 236.575 130.09 246.933C129.003 251.11 128.831 253.285 128.602 270.51L128.373 289.566L130.205 291.34C131.75 292.886 132.265 293.114 134.039 292.828C137.987 292.142 137.873 292.714 138.274 271.655C138.674 250.481 138.846 249.164 142.795 241.21C146.743 233.198 152.866 227.075 161.164 222.897C166.2 220.322 170.95 219.178 178.561 218.605C182.052 218.319 185.772 217.919 186.859 217.747C188.805 217.404 189.549 217.862 207.174 231.539C223.083 243.9 225.773 245.731 227.49 245.731C229.207 245.731 231.152 244.472 240.709 237.032C246.89 232.283 252.154 227.933 252.326 227.418C253.127 225.244 252.67 223.298 250.896 221.81C247.748 219.121 247.92 219.063 233.327 230.451C230.351 232.74 227.776 234.629 227.49 234.629C227.032 234.629 201.108 214.714 199.22 212.883C198.247 211.91 198.247 211.796 200.879 209.106C205.057 204.757 207.461 199.835 208.891 192.625C209.177 191.308 209.463 191.08 210.494 191.366C219.821 193.941 234.014 193.998 243.799 191.48C265.03 185.929 282.771 169.276 289.523 148.503C292.328 139.69 292.728 135.513 292.728 113.022C292.728 87.9 293.3 89.7313 285.117 89.2162C280.825 88.9301 278.937 88.5295 276.476 87.3277C271.096 84.6953 267.548 79.316 266.347 71.991C266.061 69.9881 265.66 67.8135 265.488 67.1268C265.202 65.7533 262.627 64.0938 260.796 64.0938C260.166 64.0938 257.305 65.6961 254.329 67.6418C235.673 79.8883 215.186 88.0145 192.982 91.8486C190.235 92.3065 187.488 92.9359 186.916 93.2793C185.199 94.1949 184.455 97.0563 185.371 99.2881C186.687 102.378 189.091 102.664 199.105 100.662C217.761 96.9418 236.646 89.7885 251.868 80.6322C256.733 77.7137 257.82 77.3131 257.82 78.5721C257.82 78.9727 258.736 81.1473 259.823 83.4936C263.6 91.3336 270.925 96.9418 279.509 98.5442L283 99.2309V116.227C283 134.196 282.542 138.832 280.024 146.214C276.19 157.373 268.235 167.731 258.221 174.484C254.157 177.231 246.489 180.664 241.396 182.095C234.643 183.926 220.565 183.926 213.755 182.095C192.353 176.258 177.016 159.662 172.896 137.973C172.152 134.196 171.98 129.046 171.98 113.194C171.98 92.2492 171.808 90.5324 169.405 89.6168C167.402 88.8729 165.056 89.2734 163.682 90.7041L162.252 92.0775V112.851C162.252 135.398 162.595 139.461 165.399 148.217C170.378 163.725 181.537 177.402 195.672 185.185C199.163 187.074 199.449 187.36 199.449 189.134C199.449 190.164 198.934 192.625 198.362 194.513C195.672 203.154 187.66 208.82 178.103 208.877C173.983 208.934 167.116 210.079 163.453 211.338L160.878 212.253L157.731 209.564C146.915 200.465 140.448 190.278 137.015 177.059C135.927 172.824 135.698 170.478 135.641 163.382C135.641 150.105 137.93 142.151 145.198 130.133C150.12 122.007 152.695 116.17 154.64 108.845C156.071 103.523 156.128 102.436 156.586 80.6895C156.815 68.2713 157.273 56.7688 157.616 55.2237C162.023 35.0227 176.215 18.9992 195.271 12.6471C203.169 10.0147 207.861 9.61409 230.008 9.90022C248.893 10.0719 251.067 10.2436 255.416 11.3309C276.819 16.9391 292.614 33.4203 297.363 55.2237C297.707 56.7688 298.165 68.2713 298.451 80.6895C298.851 100.89 299.023 103.809 300.11 107.987C301.999 115.483 304.517 121.378 308.866 128.531C313.787 136.657 316.305 142.38 318.022 149.132C319.796 156.286 319.796 170.421 318.022 176.945C316.305 183.239 313.787 189.248 310.812 194.17C307.95 198.92 307.779 199.549 309.038 201.953C309.953 203.727 310.926 204.299 313.101 204.299C315.447 204.299 316.534 203.383 319.338 198.92C329.639 182.381 332.157 160.349 325.92 141.292C324.031 135.513 321.856 131.106 317.564 124.124C313.902 118.23 311.613 113.022 309.839 106.728C308.694 102.493 308.58 100.375 308.179 79.5449C307.836 62.0908 307.493 56.0248 306.806 52.9346C304.173 41.4893 300.053 32.9625 292.785 23.9207C284.144 13.1621 270.982 5.03596 256.733 1.60237C252.269 0.515066 249.751 0.400613 229.493 0.228933C217.246 0.171707 205.629 0.343386 203.741 0.629519Z" fill="white"/>
<path d="M251.639 197.775C248.149 200.179 249.236 204.299 254.844 209.907C260.395 215.458 268.178 218.605 276.19 218.605C281.741 218.605 287.978 220.151 293.587 222.897C302.342 227.189 308.065 232.855 312.185 241.21C316.134 249.164 316.305 250.423 316.706 271.655C317.107 292.714 316.992 292.142 320.941 292.828C322.715 293.114 323.23 292.886 324.775 291.34L326.606 289.566L326.377 270.51C326.148 253.342 325.977 251.053 324.889 246.933C323.23 240.809 319.224 232.855 315.275 227.762C306.348 216.431 290.954 208.877 276.533 208.877C272.47 208.877 267.033 207.103 263.714 204.757C262.341 203.784 261.254 202.811 261.254 202.639C261.254 202.41 260.109 201.037 258.793 199.549C256.046 196.573 254.043 196.115 251.639 197.775Z" fill="white"/>
<g clip-path="url(#clip0_128_90)">
<path d="M173.18 109.143C171.143 109.596 168.992 110.728 168.426 111.633C167.067 113.558 167.18 120.124 168.426 120.916C168.992 121.369 170.124 125.218 170.803 129.746C172.954 142.538 178.614 146.5 194.689 146.5C209.406 146.5 216.651 141.859 221.179 129.406C223.556 122.84 224.009 122.161 227.292 121.822C229.443 121.595 231.028 122.048 231.254 122.954C235.103 136.085 240.65 143.104 248.914 145.368C255.706 147.179 271.102 146.274 275.743 143.896C280.271 141.519 282.196 137.897 284.007 128.614C284.8 124.765 285.932 121.256 286.384 120.916C288.083 119.897 287.517 112.878 285.705 110.954C283.328 108.577 273.706 107.671 257.065 108.237C244.499 108.69 241.782 109.143 235.103 111.973L227.405 115.256L219.82 111.973C212.575 108.916 210.991 108.69 194.576 108.464C184.954 108.237 175.331 108.577 173.18 109.143ZM211.33 114.237C219.594 116.727 220.386 120.916 214.726 132.689C211.443 139.595 205.557 142.538 194.576 142.538C185.293 142.538 179.859 140.387 177.482 135.972C173.52 128.727 174.312 117.52 179.067 114.237C182.463 111.86 203.293 111.86 211.33 114.237ZM276.649 115.369C279.026 117.633 279.479 119.218 279.479 124.425C279.479 137.783 274.498 142.425 260.234 142.538C248.688 142.538 243.82 140.047 239.631 131.784C235.669 124.086 235.443 117.746 239.065 115.822C243.367 113.444 248.008 112.765 261.14 112.652C273.253 112.539 274.045 112.652 276.649 115.369Z" fill="white"/>
</g>
<path d="M132.21 335C131.548 335 131.064 334.848 130.76 334.543C130.455 334.239 130.303 333.756 130.303 333.093V303.472C130.303 302.809 130.455 302.335 130.76 302.048C131.064 301.744 131.548 301.592 132.21 301.592H142.898C146.175 301.592 148.95 302.236 151.224 303.525C153.515 304.797 155.243 306.676 156.407 309.165C157.588 311.654 158.179 314.688 158.179 318.269C158.179 321.868 157.588 324.911 156.407 327.4C155.243 329.889 153.515 331.777 151.224 333.066C148.95 334.355 146.175 335 142.898 335H132.21ZM142.898 328.743C145.441 328.743 147.365 327.856 148.672 326.084C149.979 324.294 150.633 321.689 150.633 318.269C150.633 314.867 149.979 312.28 148.672 310.508C147.365 308.717 145.441 307.822 142.898 307.822H137.715V328.743H142.898ZM163.121 335.081C161.169 335.081 160.193 334.731 160.193 334.033C160.193 333.836 160.256 333.55 160.381 333.174L170.909 302.478C171.159 301.798 172.063 301.458 173.621 301.458H176.092C177.649 301.458 178.554 301.798 178.804 302.478L189.332 333.174C189.421 333.532 189.466 333.818 189.466 334.033C189.466 334.391 189.269 334.66 188.875 334.839C188.499 335 187.899 335.081 187.076 335.081H184.981C184.229 335.081 183.62 335.009 183.155 334.866C182.707 334.705 182.43 334.445 182.322 334.087L180.389 328.259H169.136L167.203 334.087C167.006 334.749 166.272 335.081 165 335.081H163.121ZM178.348 321.948L175.635 313.462C175.474 313.032 175.331 312.54 175.206 311.985C175.098 311.43 175 310.902 174.91 310.4H174.722L174.615 310.991C174.436 312.048 174.23 312.871 173.997 313.462L171.177 321.948H178.348ZM195.643 335.081C193.727 335.081 192.769 334.579 192.769 333.577V303.015C192.769 302.496 193.002 302.111 193.467 301.86C193.933 301.592 194.658 301.458 195.643 301.458H197.684C198.453 301.458 199.089 301.547 199.59 301.726C200.092 301.905 200.503 302.254 200.826 302.773L212.105 320.149L213.394 322.083V303.015C213.394 302.496 213.627 302.111 214.092 301.86C214.558 301.592 215.283 301.458 216.268 301.458H217.637C218.622 301.458 219.338 301.592 219.786 301.86C220.251 302.111 220.484 302.496 220.484 303.015V333.577C220.484 334.579 219.535 335.081 217.637 335.081H215.811C215.023 335.081 214.388 335 213.904 334.839C213.421 334.66 213.018 334.32 212.696 333.818L200.879 315.745L199.859 314.241V333.577C199.859 334.579 198.91 335.081 197.012 335.081H195.643ZM229.668 335.134C228.702 335.134 227.977 335 227.493 334.731C227.028 334.463 226.795 334.078 226.795 333.577V303.015C226.795 301.959 227.753 301.431 229.668 301.431H231.333C232.318 301.431 233.034 301.565 233.482 301.833C233.947 302.102 234.18 302.496 234.18 303.015V333.577C234.18 334.615 233.231 335.134 231.333 335.134H229.668ZM242.479 335C241.816 335 241.333 334.848 241.028 334.543C240.724 334.239 240.572 333.756 240.572 333.093V303.472C240.572 302.809 240.724 302.335 241.028 302.048C241.333 301.744 241.816 301.592 242.479 301.592H253.167C256.443 301.592 259.218 302.236 261.492 303.525C263.784 304.797 265.512 306.676 266.675 309.165C267.857 311.654 268.448 314.688 268.448 318.269C268.448 321.868 267.857 324.911 266.675 327.4C265.512 329.889 263.784 331.777 261.492 333.066C259.218 334.355 256.443 335 253.167 335H242.479ZM253.167 328.743C255.709 328.743 257.634 327.856 258.941 326.084C260.248 324.294 260.901 321.689 260.901 318.269C260.901 314.867 260.248 312.28 258.941 310.508C257.634 308.717 255.709 307.822 253.167 307.822H247.984V328.743H253.167ZM275.672 335C275.009 335 274.526 334.848 274.222 334.543C273.917 334.239 273.765 333.756 273.765 333.093V303.472C273.765 302.809 273.917 302.335 274.222 302.048C274.526 301.744 275.009 301.592 275.672 301.592H293.155C293.656 301.592 294.014 301.78 294.229 302.156C294.462 302.532 294.578 303.14 294.578 303.982V305.432C294.578 306.274 294.462 306.882 294.229 307.258C294.014 307.634 293.656 307.822 293.155 307.822H281.124V314.751H291.866C292.367 314.751 292.725 314.939 292.94 315.315C293.173 315.691 293.289 316.3 293.289 317.141V318.618C293.289 319.46 293.173 320.068 292.94 320.444C292.725 320.82 292.367 321.008 291.866 321.008H281.124V328.743H293.182C293.683 328.743 294.041 328.931 294.256 329.307C294.489 329.683 294.605 330.282 294.605 331.106V332.61C294.605 333.451 294.489 334.06 294.256 334.436C294.041 334.812 293.683 335 293.182 335H275.672ZM309.993 335.081C309.223 335.081 308.615 335.009 308.167 334.866C307.719 334.705 307.442 334.445 307.334 334.087L297.022 303.391C296.879 302.961 296.807 302.675 296.807 302.532C296.807 301.816 297.783 301.458 299.734 301.458H301.292C302.885 301.458 303.825 301.932 304.112 302.881L310.557 323.533L311.094 325.198H311.282L311.819 323.533L318.426 302.881C318.748 301.932 319.697 301.458 321.272 301.458H322.723C324.638 301.458 325.596 301.816 325.596 302.532C325.596 302.854 325.542 303.14 325.435 303.391L315.123 334.087C315.015 334.445 314.729 334.705 314.263 334.866C313.816 335.009 313.216 335.081 312.464 335.081H309.993Z" fill="white"/>
<defs>
<clipPath id="clip0_128_90">
<rect width="112.877" height="112.877" fill="white" transform="translate(171.051 70.8484)"/>
</clipPath>
</defs>
</svg>
