<svg width="32" height="32" viewBox="0 0 32 32" fill="none" xmlns="http://www.w3.org/2000/svg">
<rect width="32" height="32" rx="5" fill="url(#paint0_linear_1_20)"/>
<path fill-rule="evenodd" clip-rule="evenodd" d="M9.57331 5.34871H10.9698V6.34871H9.57331L3.70969 12.2142C3.53599 12.0387 3.29341 11.9246 3.00374 11.9246C3.26844 11.9246 3.52177 12.0293 3.70899 12.2149L3.00374 12.9204L3.00251 12.9216C3.00143 12.9227 3.0022 12.9246 3.00374 12.9246C3.0042 12.9246 3.00464 12.9248 3.00496 12.9251L9.28855 19.2107V20.6252L2.35576 13.6901C1.94287 13.3372 1.84714 12.6629 2.29529 12.2146L8.86608 5.64172C9.06352 5.44422 9.32236 5.34871 9.57331 5.34871ZM22.9423 20.6983L29.9475 13.6908C30.361 13.3379 30.4567 12.6629 30.0086 12.2146L24.0236 6.22773C23.461 5.66491 22.6978 5.34871 21.9019 5.34871H21.2038V6.34871H21.9019C22.4325 6.34871 22.9413 6.55951 23.3164 6.93472L28.5941 12.2142C28.7678 12.0386 29.0103 11.9246 29.3001 11.9246C29.0359 11.9246 28.7824 12.029 28.5949 12.2149L29.3001 12.9204L29.3014 12.9216C29.3024 12.9227 29.3017 12.9246 29.3001 12.9246L29.2997 12.9246L29.2989 12.9251L22.9423 19.2838V20.6983Z" fill="white"/>
<g clip-path="url(#clip0_1_20)">
<path d="M14.6582 4.03828C13.1376 4.26785 11.871 5.3253 11.4082 6.74798C11.2377 7.27671 11.2237 7.39845 11.1959 8.83505C11.1715 10.1012 11.1646 10.2299 11.095 10.4873C10.9871 10.8769 10.8584 11.1552 10.5765 11.6282C10.4408 11.8543 10.2842 12.1535 10.2251 12.2891C9.72747 13.4927 9.82838 14.9293 10.4895 16.0528C10.6809 16.3798 11.0393 16.8181 11.2794 17.0233L11.4743 17.1903L11.2342 17.3781C10.7575 17.7503 10.3538 18.3799 10.1798 19.0095C10.1137 19.2634 10.1033 19.3956 10.0894 20.4426L10.0754 21.6009L10.1868 21.7088C10.2807 21.8027 10.3121 21.8166 10.4199 21.7992C10.66 21.7575 10.6531 21.7923 10.6774 20.5122C10.7018 19.2252 10.7122 19.1452 10.9523 18.6617C11.1924 18.1747 11.5648 17.8025 12.0693 17.5486C12.3755 17.392 12.6643 17.3225 13.1271 17.2877C13.3394 17.2703 13.5656 17.2459 13.6317 17.2355C13.75 17.2146 13.7952 17.2425 14.867 18.0738C15.8343 18.8251 15.9979 18.9365 16.1023 18.9365C16.2067 18.9365 16.325 18.8599 16.9061 18.4077C17.2819 18.119 17.602 17.8547 17.6125 17.8234C17.6612 17.6912 17.6333 17.5729 17.5255 17.4825C17.3341 17.319 17.3445 17.3155 16.4572 18.0077C16.2763 18.1469 16.1197 18.2616 16.1023 18.2616C16.0744 18.2616 14.4981 17.0511 14.3833 16.9398C14.3241 16.8807 14.3241 16.8737 14.4842 16.7103C14.7382 16.4459 14.8844 16.1467 14.9714 15.7085C14.9888 15.6285 15.0062 15.6145 15.0688 15.6319C15.636 15.7885 16.499 15.7919 17.094 15.6389C18.385 15.3015 19.4637 14.2893 19.8743 13.0266C20.0448 12.4909 20.0691 12.237 20.0691 10.8699C20.0691 9.3429 20.1039 9.45422 19.6063 9.42291C19.3454 9.40552 19.2305 9.38117 19.0809 9.30812C18.7538 9.14811 18.5381 8.82114 18.465 8.3759C18.4476 8.25415 18.4232 8.12197 18.4128 8.08023C18.3954 7.99675 18.2388 7.89587 18.1275 7.89587C18.0892 7.89587 17.9152 7.99327 17.7343 8.11153C16.5999 8.85592 15.3541 9.34986 14.004 9.58292C13.837 9.61075 13.67 9.64901 13.6352 9.66988C13.5308 9.72553 13.4855 9.89946 13.5412 10.0351C13.6213 10.223 13.7674 10.2403 14.3763 10.1186C15.5107 9.8925 16.659 9.45769 17.5846 8.90114C17.8804 8.72374 17.9465 8.69939 17.9465 8.77592C17.9465 8.80027 18.0022 8.93245 18.0683 9.07506C18.298 9.55161 18.7434 9.8925 19.2653 9.9899L19.4776 10.0316V11.0647C19.4776 12.157 19.4497 12.4387 19.2966 12.8874C19.0635 13.5657 18.5798 14.1953 17.9709 14.6058C17.7238 14.7728 17.2575 14.9815 16.9478 15.0684C16.5372 15.1797 15.6812 15.1797 15.2671 15.0684C13.9657 14.7136 13.0332 13.7049 12.7826 12.3865C12.7374 12.157 12.727 11.8439 12.727 10.8804C12.727 9.60727 12.7165 9.50291 12.5704 9.44726C12.4486 9.40204 12.3059 9.42639 12.2224 9.51335L12.1354 9.59683V10.8595C12.1354 12.23 12.1563 12.477 12.3268 13.0092C12.6295 13.9518 13.3081 14.7832 14.1676 15.2563C14.3798 15.3711 14.3972 15.3884 14.3972 15.4963C14.3972 15.5589 14.3659 15.7085 14.3311 15.8233C14.1676 16.3485 13.6804 16.6929 13.0993 16.6963C12.8488 16.6998 12.4312 16.7694 12.2085 16.8459L12.0519 16.9016L11.8605 16.7381C11.2029 16.185 10.8097 15.5658 10.6009 14.7623C10.5348 14.5049 10.5208 14.3623 10.5174 13.931C10.5174 13.124 10.6566 12.6405 11.0985 11.91C11.3977 11.4161 11.5543 11.0613 11.6726 10.616C11.7596 10.2925 11.7631 10.2264 11.7909 8.90462C11.8048 8.1498 11.8327 7.45063 11.8536 7.35671C12.1215 6.12882 12.9845 5.15486 14.1432 4.76875C14.6234 4.60874 14.9087 4.58439 16.2554 4.60178C17.4037 4.61222 17.5359 4.62265 17.8004 4.68874C19.1018 5.02963 20.0622 6.03142 20.351 7.35671C20.3719 7.45063 20.3997 8.1498 20.4171 8.90462C20.4415 10.1325 20.4519 10.3099 20.518 10.5638C20.6328 11.0195 20.7859 11.3778 21.0504 11.8126C21.3497 12.3065 21.5028 12.6544 21.6072 13.0648C21.715 13.4996 21.715 14.3588 21.6072 14.7554C21.5028 15.138 21.3497 15.5032 21.1687 15.8024C20.9947 16.0911 20.9843 16.1294 21.0608 16.2754C21.1165 16.3833 21.1757 16.4181 21.3079 16.4181C21.4506 16.4181 21.5167 16.3624 21.6872 16.0911C22.3135 15.0858 22.4666 13.7466 22.0874 12.5883C21.9725 12.237 21.8403 11.9691 21.5793 11.5448C21.3566 11.1865 21.2174 10.8699 21.1096 10.4873C21.04 10.2299 21.033 10.1012 21.0086 8.83505C20.9878 7.77413 20.9669 7.40541 20.9251 7.21758C20.7651 6.52189 20.5145 6.0036 20.0726 5.454C19.5472 4.80005 18.7468 4.30612 17.8804 4.09741C17.609 4.03132 17.4559 4.02436 16.2241 4.01393C15.4794 4.01045 14.773 4.02088 14.6582 4.03828Z" fill="white"/>
<path d="M17.5707 16.0215C17.3584 16.1676 17.4246 16.4181 17.7656 16.759C18.1031 17.0964 18.5763 17.2877 19.0635 17.2877C19.401 17.2877 19.7803 17.3816 20.1213 17.5486C20.6537 17.8094 21.0017 18.1538 21.2522 18.6617C21.4923 19.1452 21.5028 19.2217 21.5271 20.5122C21.5515 21.7923 21.5445 21.7575 21.7846 21.7992C21.8925 21.8166 21.9238 21.8027 22.0178 21.7088L22.1291 21.6009L22.1152 20.4426C22.1013 19.3991 22.0908 19.26 22.0247 19.0095C21.9238 18.6373 21.6802 18.1538 21.4401 17.8442C20.8973 17.1555 19.9613 16.6963 19.0844 16.6963C18.8373 16.6963 18.5067 16.5885 18.3049 16.4459C18.2214 16.3868 18.1553 16.3276 18.1553 16.3172C18.1553 16.3033 18.0857 16.2198 18.0057 16.1294C17.8386 15.9485 17.7169 15.9206 17.5707 16.0215Z" fill="white"/>
<g clip-path="url(#clip1_1_20)">
<path d="M12.8 10.6341C12.6761 10.6616 12.5454 10.7304 12.5109 10.7855C12.4283 10.9025 12.4352 11.3016 12.5109 11.3497C12.5454 11.3773 12.6142 11.6112 12.6555 11.8864C12.7863 12.664 13.1304 12.9048 14.1079 12.9048C15.0027 12.9048 15.4433 12.6227 15.7186 11.8658C15.8632 11.4667 15.8907 11.4254 16.0903 11.4048C16.2211 11.391 16.3175 11.4185 16.3312 11.4736C16.5653 12.2718 16.9026 12.6984 17.4051 12.836C17.8181 12.9461 18.7542 12.8911 19.0364 12.7466C19.3118 12.6021 19.4288 12.3819 19.5389 11.8176C19.5871 11.5837 19.656 11.3704 19.6835 11.3497C19.7867 11.2878 19.7523 10.8612 19.6422 10.7442C19.4976 10.5997 18.9125 10.5447 17.9007 10.5791C17.1366 10.6066 16.9714 10.6341 16.5653 10.8061L16.0972 11.0057L15.636 10.8061C15.1955 10.6203 15.0991 10.6066 14.101 10.5928C13.5159 10.5791 12.9308 10.5997 12.8 10.6341ZM15.1198 10.9438C15.6223 11.0951 15.6704 11.3497 15.3263 12.0654C15.1266 12.4851 14.7687 12.664 14.101 12.664C13.5366 12.664 13.2062 12.5333 13.0616 12.2649C12.8207 11.8245 12.8689 11.1433 13.158 10.9438C13.3645 10.7993 14.631 10.7993 15.1198 10.9438ZM19.0915 11.0126C19.2361 11.1502 19.2636 11.2465 19.2636 11.563C19.2636 12.375 18.9607 12.6571 18.0934 12.664C17.3913 12.664 17.0953 12.5126 16.8406 12.0103C16.5997 11.5424 16.5859 11.1571 16.8062 11.0401C17.0678 10.8956 17.35 10.8543 18.1485 10.8474C18.885 10.8405 18.9332 10.8474 19.0915 11.0126Z" fill="white"/>
</g>
</g>
<path d="M7.47363 26C7.41341 26 7.36947 25.9862 7.3418 25.9585C7.31413 25.9308 7.30029 25.8869 7.30029 25.8267V23.1338C7.30029 23.0736 7.31413 23.0304 7.3418 23.0044C7.36947 22.9767 7.41341 22.9629 7.47363 22.9629H8.44531C8.74316 22.9629 8.99544 23.0215 9.20215 23.1387C9.41048 23.2542 9.56755 23.4251 9.67334 23.6514C9.78076 23.8776 9.83447 24.1535 9.83447 24.479C9.83447 24.8062 9.78076 25.0828 9.67334 25.3091C9.56755 25.5353 9.41048 25.707 9.20215 25.8242C8.99544 25.9414 8.74316 26 8.44531 26H7.47363ZM8.44531 25.4312C8.67643 25.4312 8.8514 25.3506 8.97021 25.1895C9.08903 25.0267 9.14844 24.7899 9.14844 24.479C9.14844 24.1698 9.08903 23.9346 8.97021 23.7734C8.8514 23.6107 8.67643 23.5293 8.44531 23.5293H7.97412V25.4312H8.44531ZM10.2837 26.0073C10.1063 26.0073 10.0176 25.9756 10.0176 25.9121C10.0176 25.8942 10.0233 25.8682 10.0347 25.834L10.9917 23.0435C11.0145 22.9816 11.0967 22.9507 11.2383 22.9507H11.4629C11.6045 22.9507 11.6867 22.9816 11.7095 23.0435L12.6665 25.834C12.6746 25.8665 12.6787 25.8926 12.6787 25.9121C12.6787 25.9447 12.6608 25.9691 12.625 25.9854C12.5908 26 12.5363 26.0073 12.4614 26.0073H12.271C12.2026 26.0073 12.1473 26.0008 12.105 25.9878C12.0643 25.9731 12.0391 25.9495 12.0293 25.917L11.8535 25.3872H10.8306L10.6548 25.917C10.6369 25.9772 10.5701 26.0073 10.4546 26.0073H10.2837ZM11.668 24.8135L11.4214 24.042C11.4067 24.0029 11.3937 23.9582 11.3823 23.9077C11.3726 23.8573 11.3636 23.8092 11.3555 23.7637H11.3384L11.3286 23.8174C11.3123 23.9134 11.2936 23.9883 11.2725 24.042L11.0161 24.8135H11.668ZM13.2402 26.0073C13.0661 26.0073 12.979 25.9618 12.979 25.8706V23.0923C12.979 23.0451 13.0002 23.0101 13.0425 22.9873C13.0848 22.9629 13.1507 22.9507 13.2402 22.9507H13.4258C13.4958 22.9507 13.5535 22.9588 13.5991 22.9751C13.6447 22.9914 13.6821 23.0231 13.7114 23.0703L14.7368 24.6499L14.854 24.8257V23.0923C14.854 23.0451 14.8752 23.0101 14.9175 22.9873C14.9598 22.9629 15.0257 22.9507 15.1152 22.9507H15.2397C15.3293 22.9507 15.3944 22.9629 15.4351 22.9873C15.4774 23.0101 15.4985 23.0451 15.4985 23.0923V25.8706C15.4985 25.9618 15.4123 26.0073 15.2397 26.0073H15.0737C15.0021 26.0073 14.9443 26 14.9004 25.9854C14.8564 25.9691 14.8198 25.9382 14.7905 25.8926L13.7163 24.2495L13.6235 24.1128V25.8706C13.6235 25.9618 13.5373 26.0073 13.3647 26.0073H13.2402ZM16.3335 26.0122C16.2456 26.0122 16.1797 26 16.1357 25.9756C16.0934 25.9512 16.0723 25.9162 16.0723 25.8706V23.0923C16.0723 22.9963 16.1593 22.9482 16.3335 22.9482H16.4849C16.5744 22.9482 16.6395 22.9604 16.6802 22.9849C16.7225 23.0093 16.7437 23.0451 16.7437 23.0923V25.8706C16.7437 25.965 16.6574 26.0122 16.4849 26.0122H16.3335ZM17.498 26C17.4378 26 17.3939 25.9862 17.3662 25.9585C17.3385 25.9308 17.3247 25.8869 17.3247 25.8267V23.1338C17.3247 23.0736 17.3385 23.0304 17.3662 23.0044C17.3939 22.9767 17.4378 22.9629 17.498 22.9629H18.4697C18.7676 22.9629 19.0199 23.0215 19.2266 23.1387C19.4349 23.2542 19.592 23.4251 19.6978 23.6514C19.8052 23.8776 19.8589 24.1535 19.8589 24.479C19.8589 24.8062 19.8052 25.0828 19.6978 25.3091C19.592 25.5353 19.4349 25.707 19.2266 25.8242C19.0199 25.9414 18.7676 26 18.4697 26H17.498ZM18.4697 25.4312C18.7008 25.4312 18.8758 25.3506 18.9946 25.1895C19.1134 25.0267 19.1729 24.7899 19.1729 24.479C19.1729 24.1698 19.1134 23.9346 18.9946 23.7734C18.8758 23.6107 18.7008 23.5293 18.4697 23.5293H17.9985V25.4312H18.4697ZM20.5156 26C20.4554 26 20.4115 25.9862 20.3838 25.9585C20.3561 25.9308 20.3423 25.8869 20.3423 25.8267V23.1338C20.3423 23.0736 20.3561 23.0304 20.3838 23.0044C20.4115 22.9767 20.4554 22.9629 20.5156 22.9629H22.105C22.1506 22.9629 22.1831 22.98 22.2026 23.0142C22.2238 23.0483 22.2344 23.1037 22.2344 23.1802V23.312C22.2344 23.3885 22.2238 23.4438 22.2026 23.478C22.1831 23.5122 22.1506 23.5293 22.105 23.5293H21.0112V24.1592H21.9878C22.0334 24.1592 22.0659 24.1763 22.0854 24.2104C22.1066 24.2446 22.1172 24.3 22.1172 24.3765V24.5107C22.1172 24.5872 22.1066 24.6426 22.0854 24.6768C22.0659 24.7109 22.0334 24.728 21.9878 24.728H21.0112V25.4312H22.1074C22.153 25.4312 22.1855 25.4482 22.2051 25.4824C22.2262 25.5166 22.2368 25.5711 22.2368 25.646V25.7827C22.2368 25.8592 22.2262 25.9146 22.2051 25.9487C22.1855 25.9829 22.153 26 22.1074 26H20.5156ZM23.6357 26.0073C23.5658 26.0073 23.5104 26.0008 23.4697 25.9878C23.429 25.9731 23.4038 25.9495 23.394 25.917L22.4565 23.1265C22.4435 23.0874 22.437 23.0614 22.437 23.0483C22.437 22.9832 22.5257 22.9507 22.7031 22.9507H22.8447C22.9896 22.9507 23.075 22.9938 23.1011 23.0801L23.687 24.9575L23.7358 25.1089H23.7529L23.8018 24.9575L24.4023 23.0801C24.4316 22.9938 24.5179 22.9507 24.6611 22.9507H24.793C24.9671 22.9507 25.0542 22.9832 25.0542 23.0483C25.0542 23.0776 25.0493 23.1037 25.0396 23.1265L24.1021 25.917C24.0923 25.9495 24.0662 25.9731 24.0239 25.9878C23.9832 26.0008 23.9287 26.0073 23.8604 26.0073H23.6357Z" fill="white"/>
<defs>
<linearGradient id="paint0_linear_1_20" x1="-0.768001" y1="32" x2="32" y2="1.22833e-06" gradientUnits="userSpaceOnUse">
<stop stop-color="#0C0D1D"/>
<stop offset="0.555" stop-color="#282C62"/>
<stop offset="1" stop-color="#363B83"/>
</linearGradient>
<clipPath id="clip0_1_20">
<rect width="17.816" height="17.8096" fill="white" transform="translate(7.19424 4)"/>
</clipPath>
<clipPath id="clip1_1_20">
<rect width="6.86356" height="6.86109" fill="white" transform="translate(12.6705 8.30643)"/>
</clipPath>
</defs>
</svg>
