<svg width="40" height="41" viewBox="0 0 40 41" fill="none" xmlns="http://www.w3.org/2000/svg">
<path d="M36.5462 31.0647C34.4016 31.0062 32.7637 31.2059 31.3634 31.7962C30.9656 31.964 30.3306 31.9687 30.2656 32.4672C30.4844 32.6962 30.5184 33.0387 30.6922 33.3206C31.0266 33.8612 31.5909 34.5868 32.0947 34.9668C32.6453 35.3825 33.2125 35.8265 33.8025 36.1862C34.8519 36.8259 36.0234 37.1915 37.0337 37.8325C37.6294 38.2106 38.2209 38.6865 38.8019 39.1128C39.0894 39.3237 39.2822 39.6515 39.6556 39.7837V39.7231C39.4594 39.4731 39.4087 39.13 39.2287 38.869L38.4359 38.0762C37.6609 37.0475 36.6769 36.1437 35.6309 35.3934C34.7969 34.7947 32.9303 33.9859 32.5825 33.0156L32.5216 32.9547C33.1128 32.8878 33.805 32.674 34.3509 32.5275C35.2678 32.2818 36.0872 32.3453 37.0337 32.1009L38.3141 31.735V31.4912C37.8356 31.0003 37.4944 30.3503 36.9728 29.9059C35.6072 28.7434 34.1172 27.5818 32.5828 26.6131C31.7316 26.0762 30.68 25.7272 29.7778 25.2718C29.4744 25.1184 28.9412 25.0387 28.7409 24.7837C28.2669 24.18 28.0091 23.4143 27.6437 22.7109C26.8784 21.2368 26.1269 19.6272 25.4487 18.0762C24.9862 17.0187 24.6841 15.9762 24.1072 15.0275C21.3384 10.4753 18.3584 7.72809 13.7419 5.02747C12.7594 4.45309 11.5766 4.22653 10.3266 3.92965C9.65624 3.88934 8.9853 3.8484 8.31468 3.80747C7.90499 3.63684 7.47936 3.1359 7.0953 2.89278C5.56593 1.92653 1.6428 -0.175033 0.510303 2.58809C-0.20501 4.33215 1.57937 6.0334 2.21718 6.91747C2.6653 7.53684 3.23874 8.23215 3.55874 8.92934C3.76937 9.38778 3.80562 9.84747 3.98593 10.3322C4.42874 11.5265 4.81468 12.8259 5.38811 13.9293C5.6778 14.4881 5.99718 15.0762 6.36374 15.5756C6.58812 15.8822 6.97343 16.0172 7.03405 16.4903C6.6578 17.0172 6.63624 17.8353 6.42468 18.5028C5.47155 21.5075 5.83124 25.2425 7.21749 27.4662C7.64249 28.1493 8.64468 29.6134 10.0222 29.0515C11.2272 28.5609 10.9581 27.0397 11.3028 25.6978C11.3806 25.3937 11.3328 25.17 11.4856 24.9662V25.0272L12.5834 27.2222C13.3959 28.5306 14.8372 29.8978 16.0591 30.8203C16.6925 31.2987 17.1912 32.1256 18.0103 32.4056V32.3443H17.9494C17.7906 32.0972 17.5422 31.9947 17.3397 31.7959C16.8625 31.3281 16.3319 30.7465 15.9375 30.2106C14.8262 28.7022 13.8444 27.0512 12.9497 25.3328C12.5222 24.5118 12.1506 23.6068 11.7906 22.7715C11.6519 22.4497 11.6537 21.9625 11.3644 21.7959C10.9697 22.4078 10.3887 22.9028 10.0837 23.6253C9.59593 24.7803 9.53312 26.189 9.35218 27.6497C9.2453 27.6878 9.2928 27.6615 9.22999 27.7103C8.38062 27.5056 8.08249 26.6315 7.76655 25.8812C6.96843 23.9843 6.81999 20.9306 7.52249 18.7472C7.70437 18.1818 8.52561 16.4031 8.19312 15.8809C8.03437 15.3603 7.51061 15.059 7.2178 14.6612C6.85499 14.1693 6.49311 13.5218 6.24155 12.9537C5.58843 11.4753 5.28343 9.81497 4.59562 8.31997C4.26655 7.60528 3.71062 6.88184 3.25405 6.24684C2.74874 5.54278 2.18249 5.02434 1.79062 4.1734C1.65124 3.8709 1.46218 3.38653 1.66843 3.07559C1.73405 2.8659 1.82718 2.7784 2.03437 2.70997C2.38812 2.43715 3.37312 2.80059 3.74124 2.9534C4.71905 3.35965 5.5353 3.74653 6.36374 4.29528C6.76093 4.55903 7.16343 5.06872 7.64405 5.20997H8.1928C9.05124 5.40715 10.0128 5.2709 10.815 5.51465C12.2325 5.94528 13.5028 6.61559 14.6562 7.34403C18.1706 9.5634 21.0444 12.7222 23.01 16.4906C23.3262 17.0975 23.4631 17.6762 23.7416 18.32C24.3034 19.6178 25.0112 20.9531 25.5703 22.2225C26.1284 23.4887 26.6722 24.7665 27.4609 25.8203C27.8756 26.374 29.4769 26.6712 30.205 26.979C30.715 27.1943 31.5509 27.4193 32.0344 27.7103C32.9572 28.2672 33.8516 28.93 34.7175 29.54C35.1497 29.8447 36.48 30.5137 36.5462 31.0647ZM9.2903 7.83309C8.84311 7.82465 8.52687 7.88184 8.19249 7.95465V8.01559H8.25343C8.46686 8.45372 8.84343 8.73622 9.10686 9.1134C9.30999 9.54059 9.51343 9.96715 9.71686 10.3937L9.77749 10.3334C10.1553 10.0668 10.3281 9.64153 10.3259 8.99153C10.1747 8.83247 10.1525 8.63309 10.0212 8.44309C9.84749 8.18965 9.5103 8.04559 9.2903 7.83309Z" fill="#00618A"/>
</svg>
