<svg width="40" height="41" viewBox="0 0 40 41" fill="none" xmlns="http://www.w3.org/2000/svg">
<path d="M0 20.4999C0 26.3103 8.95437 31.0209 20 31.0209C31.0456 31.0209 40 26.3103 40 20.4999C40 14.6896 31.0453 9.979 20 9.979C8.95437 9.979 0 14.6896 0 20.4999Z" fill="url(#paint0_radial_25_113)"/>
<path d="M20 30.2396C30.6141 30.2396 39.2188 25.8787 39.2188 20.4999C39.2188 15.1206 30.6141 10.7603 20 10.7603C9.38594 10.7603 0.78125 15.1206 0.78125 20.4999C0.78125 25.8787 9.38594 30.2396 20 30.2396Z" fill="#777BB3"/>
<path d="M10.8663 21.7075C11.7391 21.7075 12.3903 21.5465 12.8025 21.2294C13.2106 20.915 13.4922 20.3709 13.64 19.6122C13.7775 18.9028 13.725 18.4078 13.4838 18.1403C13.2375 17.8672 12.7047 17.7287 11.9003 17.7287H10.5053L9.73251 21.7075H10.8663ZM6.30408 26.6084C6.27207 26.6084 6.24047 26.6012 6.21154 26.5875C6.18262 26.5738 6.15708 26.5539 6.13677 26.5292C6.11646 26.5044 6.10187 26.4755 6.09406 26.4445C6.08624 26.4134 6.0854 26.3811 6.09158 26.3497L8.14064 15.8065C8.15032 15.7573 8.17679 15.7128 8.21554 15.6809C8.25428 15.6489 8.30291 15.6314 8.35314 15.6312H12.77C14.1581 15.6312 15.1913 16.0081 15.841 16.7515C16.4935 17.4984 16.6953 18.5434 16.44 19.8562C16.336 20.3909 16.1572 20.8875 15.9088 21.3325C15.6501 21.7902 15.3202 22.2037 14.9313 22.5575C14.4528 23.005 13.9113 23.33 13.3228 23.5209C12.7441 23.7097 12.0003 23.8053 11.1135 23.8053H9.3247L8.81407 26.4328C8.80443 26.4822 8.7779 26.5268 8.73902 26.5588C8.70014 26.5909 8.65133 26.6084 8.60095 26.6084H6.30408Z" fill="black"/>
<path d="M10.6844 17.9456H11.9003C12.8712 17.9456 13.2084 18.1588 13.3231 18.2859C13.5128 18.4966 13.5491 18.9413 13.4266 19.5709C13.2894 20.2763 13.035 20.7766 12.6703 21.0572C12.2972 21.3447 11.6897 21.4903 10.8662 21.4903H9.99562L10.6847 17.9459L10.6844 17.9456ZM12.77 15.4144H8.35343C8.25271 15.4144 8.15513 15.4494 8.07737 15.5134C7.99962 15.5774 7.94653 15.6665 7.92718 15.7653L5.87812 26.3088C5.86601 26.3716 5.86793 26.4363 5.88373 26.4982C5.89953 26.5602 5.92882 26.6179 5.96951 26.6673C6.0102 26.7166 6.06128 26.7564 6.11911 26.7837C6.17694 26.811 6.24009 26.8252 6.30405 26.8253H8.60093C8.70164 26.8252 8.79918 26.7901 8.87688 26.7261C8.95457 26.662 9.00759 26.5729 9.02687 26.4741L9.50343 24.0222H11.1131C12.0231 24.0222 12.7894 23.9228 13.3903 23.7272C14.0081 23.5266 14.5766 23.1862 15.0797 22.7156C15.4848 22.3466 15.8286 21.9155 16.0981 21.4384C16.3578 20.9738 16.5447 20.455 16.6528 19.8975C16.9216 18.5153 16.7031 17.4088 16.0041 16.6088C15.3116 15.8159 14.2234 15.4141 12.77 15.4141V15.4144ZM9.46905 21.9241H10.8662C11.7922 21.9241 12.4819 21.75 12.935 21.4006C13.3884 21.0519 13.6937 20.4694 13.8531 19.6534C14.0047 18.8697 13.9356 18.3169 13.6453 17.9947C13.3544 17.6728 12.7731 17.5116 11.9003 17.5116H10.3266L9.46905 21.9241ZM12.7703 15.8475C14.0991 15.8475 15.0681 16.1966 15.6775 16.8938C16.2869 17.5913 16.47 18.5647 16.2275 19.8144C16.1269 20.3294 15.9578 20.8 15.7197 21.2262C15.4809 21.6531 15.1697 22.0431 14.785 22.3972C14.3262 22.8263 13.8172 23.1322 13.2562 23.3144C12.6956 23.4969 11.9812 23.5878 11.1134 23.5878H9.14593L8.60124 26.3909H6.30437L8.35374 15.8475H12.7703Z" fill="white"/>
<path d="M21.7059 23.8053C21.6739 23.8054 21.6423 23.7983 21.6133 23.7847C21.5843 23.771 21.5587 23.7511 21.5383 23.7264C21.518 23.7017 21.5033 23.6728 21.4954 23.6418C21.4876 23.6107 21.4867 23.5783 21.4928 23.5469L22.3991 18.8819C22.4856 18.4381 22.4644 18.12 22.3397 17.985C22.2631 17.9028 22.0337 17.765 21.3553 17.765H19.7128L18.5734 23.63C18.5636 23.6794 18.537 23.7238 18.4981 23.7558C18.4591 23.7877 18.4103 23.8051 18.36 23.805H16.0819C16.0499 23.805 16.0182 23.798 15.9893 23.7843C15.9603 23.7707 15.9347 23.7509 15.9143 23.7262C15.8939 23.7015 15.8793 23.6727 15.8713 23.6417C15.8634 23.6107 15.8624 23.5783 15.8684 23.5469L17.9178 13.0034C17.9275 12.954 17.9541 12.9096 17.9929 12.8776C18.0318 12.8456 18.0806 12.8281 18.1309 12.8281H20.409C20.4411 12.8281 20.4727 12.8352 20.5016 12.8488C20.5306 12.8624 20.5562 12.8822 20.5766 12.9069C20.597 12.9316 20.6117 12.9604 20.6196 12.9914C20.6275 13.0224 20.6285 13.0548 20.6225 13.0863L20.1281 15.6312H21.8947C23.2406 15.6312 24.1531 15.8681 24.6847 16.3566C25.2262 16.8544 25.3956 17.6503 25.1872 18.7231L24.2337 23.63C24.224 23.6793 24.1974 23.7238 24.1585 23.7557C24.1196 23.7876 24.0709 23.805 24.0206 23.805H21.7059V23.8053Z" fill="black"/>
<path d="M20.4094 12.611H18.1309C18.0302 12.611 17.9325 12.646 17.8548 12.7101C17.777 12.7742 17.724 12.8633 17.7047 12.9622L15.6556 23.5053C15.6435 23.5682 15.6453 23.6329 15.6611 23.6949C15.6769 23.7569 15.7062 23.8147 15.7469 23.8641C15.7876 23.9135 15.8387 23.9532 15.8965 23.9806C15.9544 24.0079 16.0176 24.0221 16.0815 24.0222H18.36C18.4607 24.0222 18.5584 23.9871 18.6361 23.9231C18.7139 23.859 18.767 23.7699 18.7862 23.671L19.8915 17.9819H21.3547C22.0322 17.9819 22.1747 18.1266 22.18 18.1331C22.2212 18.1769 22.2753 18.3816 22.1859 18.8406L21.2797 23.5053C21.2675 23.5682 21.2694 23.633 21.2852 23.695C21.301 23.757 21.3303 23.8148 21.371 23.8642C21.4118 23.9136 21.4629 23.9534 21.5208 23.9807C21.5787 24.008 21.6419 24.0222 21.7059 24.0222H24.0209C24.1216 24.0221 24.2192 23.987 24.2969 23.923C24.3746 23.8589 24.4276 23.7698 24.4469 23.671L25.4003 18.7647C25.6237 17.6128 25.4325 16.7491 24.8315 16.1969C24.2578 15.67 23.2972 15.4141 21.8947 15.4141H20.3915L20.8356 13.1281C20.8478 13.0653 20.846 13.0005 20.8302 12.9384C20.8144 12.8763 20.7851 12.8185 20.7444 12.7691C20.7037 12.7196 20.6525 12.6798 20.5946 12.6525C20.5367 12.6252 20.4734 12.611 20.4094 12.611ZM20.4094 13.0453L19.8647 15.8478H21.8947C23.1719 15.8478 24.0531 16.071 24.5375 16.5166C25.0228 16.9622 25.1678 17.6838 24.9744 18.6822L24.0206 23.5882H21.7059L22.6125 18.9231C22.7156 18.3925 22.6775 18.0306 22.4984 17.8375C22.3194 17.6447 21.9381 17.5481 21.3553 17.5481H19.5337L18.36 23.5878H16.0812L18.1306 13.0444H20.4094V13.0453Z" fill="white"/>
<path d="M28.7925 21.7075C29.6653 21.7075 30.3169 21.5465 30.7294 21.2294C31.1369 20.915 31.4187 20.3709 31.5666 19.6122C31.7041 18.9028 31.6519 18.4078 31.4103 18.1403C31.1641 17.8672 30.6312 17.7287 29.8269 17.7287H28.4322L27.6587 21.7075H28.7925ZM24.2312 26.6084C24.1992 26.6085 24.1675 26.6014 24.1385 26.5877C24.1095 26.5741 24.0839 26.5542 24.0635 26.5294C24.0431 26.5047 24.0285 26.4757 24.0206 26.4446C24.0128 26.4136 24.0119 26.3811 24.0181 26.3497L26.0672 15.8065C26.0769 15.7571 26.1034 15.7127 26.1423 15.6807C26.1812 15.6487 26.23 15.6312 26.2803 15.6312H30.6969C32.085 15.6312 33.1181 16.0081 33.7675 16.7515C34.4203 17.4984 34.6219 18.5434 34.3666 19.8562C34.269 20.3734 34.0898 20.8717 33.8356 21.3325C33.5769 21.7901 33.2469 22.2036 32.8581 22.5575C32.38 23.005 31.8378 23.33 31.2497 23.5209C30.6709 23.7097 29.9272 23.8053 29.04 23.8053H27.2516L26.7412 26.4328C26.7316 26.4823 26.705 26.5269 26.6661 26.5589C26.6271 26.591 26.5782 26.6085 26.5278 26.6084H24.2312Z" fill="black"/>
<path d="M28.6109 17.9456H29.8269C30.7978 17.9456 31.135 18.1588 31.2494 18.2859C31.44 18.4966 31.4756 18.9413 31.3534 19.5709C31.2159 20.2763 30.9616 20.7766 30.5969 21.0572C30.2234 21.3447 29.6159 21.4903 28.7928 21.4903H27.9222L28.6109 17.9456ZM30.6966 15.4144H26.28C26.1793 15.4145 26.0818 15.4495 26.0041 15.5135C25.9264 15.5775 25.8734 15.6665 25.8541 15.7653L23.8047 26.3088C23.7926 26.3716 23.7945 26.4363 23.8103 26.4983C23.8261 26.5603 23.8555 26.618 23.8962 26.6674C23.9369 26.7168 23.988 26.7565 24.0459 26.7838C24.1038 26.8111 24.167 26.8253 24.2309 26.8253H26.5278C26.6285 26.8252 26.7261 26.7901 26.8038 26.7261C26.8815 26.662 26.9345 26.5729 26.9538 26.4741L27.4303 24.0222H29.0397C29.9494 24.0222 30.7159 23.9228 31.3166 23.7272C31.9347 23.5266 32.5031 23.1862 33.0066 22.7153C33.4115 22.3464 33.7552 21.9154 34.0247 21.4384C34.2847 20.9738 34.4709 20.455 34.5794 19.8975C34.8481 18.5153 34.63 17.4088 33.9306 16.6088C33.2381 15.8159 32.1503 15.4141 30.6963 15.4141L30.6966 15.4144ZM27.3956 21.9241H28.7925C29.7188 21.9241 30.4081 21.75 30.8619 21.4006C31.315 21.0519 31.6206 20.4694 31.7794 19.6534C31.9316 18.8697 31.8625 18.3169 31.5716 17.9947C31.2809 17.6728 30.6994 17.5116 29.8269 17.5116H28.2534L27.3956 21.9241ZM30.6966 15.8475C32.025 15.8475 32.9947 16.1966 33.6038 16.8938C34.2131 17.5913 34.3966 18.5647 34.1534 19.8144C34.0534 20.3294 33.8841 20.8 33.6459 21.2262C33.4075 21.6531 33.0959 22.0431 32.7109 22.3972C32.2525 22.8263 31.7431 23.1322 31.1822 23.3144C30.6219 23.4969 29.9078 23.5878 29.0397 23.5878H27.0725L26.5272 26.3909H24.2303L26.2797 15.8475H30.6966Z" fill="white"/>
<defs>
<radialGradient id="paint0_radial_25_113" cx="0" cy="0" r="1" gradientUnits="userSpaceOnUse" gradientTransform="translate(12.0081 13.6778) scale(26.2629 26.2629)">
<stop stop-color="#AEB2D5"/>
<stop offset="0.3" stop-color="#AEB2D5"/>
<stop offset="0.75" stop-color="#484C89"/>
<stop offset="1" stop-color="#484C89"/>
</radialGradient>
</defs>
</svg>
