<svg width="15" height="21" viewBox="0 0 15 21" fill="none" xmlns="http://www.w3.org/2000/svg">
<path d="M1.24999 1.75C1.24999 1.05859 1.80858 0.5 2.49999 0.5H12.5C13.1914 0.5 13.75 1.05859 13.75 1.75C13.75 2.44141 13.1914 3 12.5 3H11.3476L11.793 8.78906C13.2265 9.56641 14.3594 10.8672 14.8984 12.4883L14.9375 12.6055C15.0664 12.9883 15 13.4062 14.7656 13.7305C14.5312 14.0547 14.1523 14.25 13.75 14.25H1.24999C0.847641 14.25 0.472641 14.0586 0.23436 13.7305C-0.00392104 13.4023 -0.0664211 12.9844 0.0624852 12.6055L0.101548 12.4883C0.64061 10.8672 1.77342 9.56641 3.20702 8.78906L3.65233 3H2.49999C1.80858 3 1.24999 2.44141 1.24999 1.75ZM6.24998 15.5H8.74998V19.25C8.74998 19.9414 8.19139 20.5 7.49998 20.5C6.80858 20.5 6.24998 19.9414 6.24998 19.25V15.5Z" fill="#C2C6DA"/>
</svg>
