<svg width="40" height="41" viewBox="0 0 40 41" fill="none" xmlns="http://www.w3.org/2000/svg">
<g clip-path="url(#clip0_25_200)">
<mask id="mask0_25_200" style="mask-type:alpha" maskUnits="userSpaceOnUse" x="-1" y="0" width="41" height="41">
<path fill-rule="evenodd" clip-rule="evenodd" d="M28.3647 40.2269C28.683 40.351 29.0234 40.4083 29.3648 40.3952C29.7062 40.3821 30.0412 40.2988 30.3491 40.1507L38.5844 36.1879C39.0085 35.9837 39.3663 35.664 39.6168 35.2654C39.8672 34.8669 40 34.4057 40 33.935V7.06536C40.0001 6.59461 39.8673 6.13341 39.6168 5.73481C39.3664 5.33621 39.0085 5.01642 38.5844 4.81223L30.3491 0.850044C29.8837 0.62614 29.3603 0.55242 28.8512 0.639088C28.3421 0.725755 27.8725 0.968524 27.5075 1.33379L11.7419 15.7169L4.87499 10.5041C4.56522 10.2689 4.18289 10.1496 3.79434 10.1668C3.40578 10.1841 3.03552 10.3368 2.7478 10.5985L0.545303 12.6019C0.373661 12.758 0.236494 12.9482 0.142576 13.1604C0.048657 13.3726 5.48948e-05 13.602 -0.000121588 13.834C-0.000298071 14.066 0.0479549 14.2955 0.141551 14.5078C0.235146 14.7201 0.372024 14.9105 0.543427 15.0669L6.49874 20.5L0.54374 25.9335C0.37243 26.0899 0.235634 26.2803 0.142097 26.4926C0.0485591 26.7048 0.000337387 26.9343 0.000513852 27.1662C0.000690316 27.3982 0.049261 27.6276 0.143121 27.8397C0.236982 28.0518 0.374067 28.242 0.545615 28.3982L2.74811 30.4016C3.03577 30.6634 3.40602 30.8162 3.79459 30.8335C4.18316 30.8508 4.56553 30.7315 4.8753 30.4963L11.7422 25.2838L27.5078 39.6666C27.7516 39.9108 28.0432 40.1016 28.3647 40.2269ZM30.0059 11.4197L18.0437 20.5L30.0062 29.5807L30.0059 11.4197Z" fill="white"/>
</mask>
<g mask="url(#mask0_25_200)">
<path d="M38.5846 4.81876L30.3428 0.850011C29.8772 0.625958 29.3536 0.552158 28.8443 0.638826C28.3349 0.725494 27.8652 0.968344 27.5 1.33376L0.519328 25.9334C0.34789 26.0898 0.210979 26.2802 0.117358 26.4924C0.0237377 26.7047 -0.024529 26.9342 -0.0243525 27.1662C-0.024176 27.3982 0.0244398 27.6276 0.118383 27.8398C0.212326 28.0519 0.349527 28.2421 0.521203 28.3981L2.72495 30.4016C3.01287 30.6634 3.38331 30.8162 3.77207 30.8334C4.16082 30.8507 4.54337 30.7315 4.85339 30.4963L37.3443 5.84782C38.4343 5.02095 40 5.79845 40 7.16657V7.07095C39.9999 6.60035 39.8671 6.13932 39.6167 5.74085C39.3664 5.34238 39.0086 5.02297 38.5846 4.81876Z" fill="#0065A9"/>
<g filter="url(#filter0_d_25_200)">
<path d="M38.5846 36.1816L30.3428 40.1497C29.8773 40.3738 29.3537 40.4477 28.8444 40.3612C28.3351 40.2746 27.8652 40.0319 27.5 39.6666L0.519328 15.0666C0.34789 14.9102 0.210979 14.7199 0.117358 14.5076C0.0237377 14.2953 -0.024529 14.0658 -0.0243525 13.8338C-0.024176 13.6018 0.0244398 13.3724 0.118383 13.1603C0.212326 12.9481 0.349527 12.7579 0.521203 12.6019L2.72495 10.5984C3.01287 10.3366 3.38331 10.1839 3.77207 10.1666C4.16082 10.1493 4.54337 10.2686 4.85339 10.5038L37.3443 35.1519C38.4343 35.9791 40 35.2016 40 33.8334V33.9291C39.9999 34.3997 39.8671 34.8607 39.6167 35.2592C39.3664 35.6576 39.0086 35.9774 38.5846 36.1816Z" fill="#007ACC"/>
</g>
<g filter="url(#filter1_d_25_200)">
<path d="M30.3431 40.1506C29.8775 40.3745 29.3538 40.4482 28.8445 40.3615C28.3351 40.2748 27.8653 40.0319 27.5 39.6666C28.4225 40.5891 30 39.9356 30 38.6309V2.36876C30 1.06407 28.4225 0.410634 27.5 1.33345C27.8653 0.968072 28.3351 0.725233 28.8445 0.638515C29.3538 0.551796 29.8775 0.625483 30.3431 0.849384L38.5834 4.81251C39.0078 5.01656 39.3658 5.3363 39.6165 5.7349C39.8671 6.13351 40 6.59479 40 7.06563V33.935C40 34.4059 39.8671 34.8671 39.6165 35.2657C39.3658 35.6643 39.0078 35.9841 38.5834 36.1881L30.3431 40.1506Z" fill="#1F9CF0"/>
</g>
<path style="mix-blend-mode:overlay" opacity="0.25" fill-rule="evenodd" clip-rule="evenodd" d="M28.3406 40.2269C28.6589 40.351 28.9992 40.4082 29.3406 40.3951C29.6819 40.382 30.0169 40.2988 30.3247 40.1507L38.56 36.1879C38.9841 35.9837 39.342 35.6639 39.5925 35.2653C39.8429 34.8667 39.9757 34.4055 39.9756 33.9347V7.06536C39.9757 6.59461 39.8429 6.13341 39.5925 5.73481C39.342 5.33621 38.9841 5.01642 38.56 4.81223L30.3247 0.850044C29.8593 0.62614 29.3359 0.55242 28.8268 0.639088C28.3177 0.725755 27.8482 0.968524 27.4831 1.33379L11.7175 15.7169L4.85061 10.5044C4.54084 10.2692 4.15851 10.1499 3.76996 10.1671C3.3814 10.1844 3.01114 10.3371 2.72342 10.5988L0.52092 12.6022C0.349322 12.7584 0.212193 12.9486 0.118302 13.1608C0.024411 13.3729 -0.0241761 13.6023 -0.0243525 13.8343C-0.024529 14.0663 0.023709 14.2958 0.117277 14.5081C0.210845 14.7204 0.347684 14.9108 0.519045 15.0672L6.47436 20.5L0.519358 25.9332C0.347954 26.0895 0.211076 26.28 0.117481 26.4923C0.023885 26.7046 -0.024368 26.9341 -0.0241915 27.1661C-0.0240151 27.3981 0.024587 27.6275 0.118506 27.8397C0.212424 28.0518 0.349591 28.2421 0.521232 28.3982L2.72373 30.4016C3.01142 30.6634 3.38166 30.8161 3.77021 30.8334C4.15877 30.8507 4.54112 30.7315 4.85092 30.4963L11.7181 25.2835L27.4837 39.6666C27.7274 39.9108 28.0192 40.1016 28.3406 40.2269ZM29.9819 11.4194L18.0194 20.5L29.9819 29.5804V11.4194Z" fill="url(#paint0_linear_25_200)"/>
</g>
</g>
<defs>
<filter id="filter0_d_25_200" x="-8.35769" y="1.83158" width="56.691" height="46.8981" filterUnits="userSpaceOnUse" color-interpolation-filters="sRGB">
<feFlood flood-opacity="0" result="BackgroundImageFix"/>
<feColorMatrix in="SourceAlpha" type="matrix" values="0 0 0 0 0 0 0 0 0 0 0 0 0 0 0 0 0 0 127 0" result="hardAlpha"/>
<feOffset/>
<feGaussianBlur stdDeviation="4.16667"/>
<feColorMatrix type="matrix" values="0 0 0 0 0 0 0 0 0 0 0 0 0 0 0 0 0 0 0.25 0"/>
<feBlend mode="overlay" in2="BackgroundImageFix" result="effect1_dropShadow_25_200"/>
<feBlend mode="normal" in="SourceGraphic" in2="effect1_dropShadow_25_200" result="shape"/>
</filter>
<filter id="filter1_d_25_200" x="19.1667" y="-7.73019" width="29.1667" height="56.4604" filterUnits="userSpaceOnUse" color-interpolation-filters="sRGB">
<feFlood flood-opacity="0" result="BackgroundImageFix"/>
<feColorMatrix in="SourceAlpha" type="matrix" values="0 0 0 0 0 0 0 0 0 0 0 0 0 0 0 0 0 0 127 0" result="hardAlpha"/>
<feOffset/>
<feGaussianBlur stdDeviation="4.16667"/>
<feColorMatrix type="matrix" values="0 0 0 0 0 0 0 0 0 0 0 0 0 0 0 0 0 0 0.25 0"/>
<feBlend mode="overlay" in2="BackgroundImageFix" result="effect1_dropShadow_25_200"/>
<feBlend mode="normal" in="SourceGraphic" in2="effect1_dropShadow_25_200" result="shape"/>
</filter>
<linearGradient id="paint0_linear_25_200" x1="19.9757" y1="0.603139" x2="19.9757" y2="40.3969" gradientUnits="userSpaceOnUse">
<stop stop-color="white"/>
<stop offset="1" stop-color="white" stop-opacity="0"/>
</linearGradient>
<clipPath id="clip0_25_200">
<rect width="40" height="40" fill="white" transform="translate(0 0.5)"/>
</clipPath>
</defs>
</svg>
